Hornby 03.ufo
<glyph name="ampersand" format="1">
  <advance width="715"/>
  <unicode hex="0026"/>
  <outline>
    <contour>
      <point x="457" y="396" type="line"/>
      <point x="515" y="347"/>
      <point x="541" y="292"/>
      <point x="541" y="227" type="curve" smooth="yes"/>
      <point x="541" y="126"/>
      <point x="460" y="35"/>
      <point x="326" y="35" type="curve" smooth="yes"/>
      <point x="200" y="35"/>
      <point x="140" y="109"/>
      <point x="140" y="203" type="curve" smooth="yes"/>
      <point x="140" y="263"/>
      <point x="171" y="324"/>
      <point x="236" y="367" type="curve"/>
      <point x="230" y="390" type="line"/>
      <point x="124" y="383"/>
      <point x="25" y="309"/>
      <point x="25" y="185" type="curve" smooth="yes"/>
      <point x="25" y="66"/>
      <point x="134" y="-20"/>
      <point x="302" y="-20" type="curve" smooth="yes"/>
      <point x="484" y="-20"/>
      <point x="611" y="102"/>
      <point x="611" y="222" type="curve" smooth="yes"/>
      <point x="611" y="303"/>
      <point x="556" y="357"/>
      <point x="517" y="390" type="curve"/>
      <point x="501" y="371"/>
      <point x="519" y="342"/>
      <point x="547" y="343" type="curve"/>
      <point x="621" y="345"/>
      <point x="737.4103711573546" y="382.0543895982351"/>
      <point x="475" y="414" type="curve"/>
    </contour>
    <contour>
      <point x="345" y="694" type="curve" smooth="yes"/>
      <point x="376" y="694"/>
      <point x="397" y="691"/>
      <point x="435" y="664" type="curve"/>
      <point x="410" y="710" type="line"/>
      <point x="437" y="521" type="line"/>
      <point x="455" y="512" type="line"/>
      <point x="496" y="526"/>
      <point x="529" y="555"/>
      <point x="529" y="610" type="curve" smooth="yes"/>
      <point x="529" y="688"/>
      <point x="450" y="734"/>
      <point x="346" y="734" type="curve" smooth="yes"/>
      <point x="221" y="734"/>
      <point x="129" y="658"/>
      <point x="129" y="549" type="curve" smooth="yes"/>
      <point x="129" y="460"/>
      <point x="198" y="379"/>
      <point x="268" y="287" type="curve" smooth="yes"/>
      <point x="478" y="11" type="line" smooth="yes"/>
      <point x="505" y="-25"/>
      <point x="533" y="-45"/>
      <point x="570" y="-45" type="curve" smooth="yes"/>
      <point x="604" y="-45"/>
      <point x="628" y="-21"/>
      <point x="628" y="4" type="curve"/>
      <point x="628" y="4"/>
      <point x="556" y="77"/>
      <point x="463" y="192" type="curve" smooth="yes"/>
      <point x="332" y="354" type="line" smooth="yes"/>
      <point x="270" y="430"/>
      <point x="225" y="496"/>
      <point x="225" y="571" type="curve" smooth="yes"/>
      <point x="225" y="638"/>
      <point x="275" y="694"/>
    </contour>
  </outline>
</glyph>
<glyph name="quotesingle" format="1">
  <advance width="218"/>
  <unicode hex="0027"/>
  <outline>
    <contour>
      <point x="79" y="735" type="line"/>
      <point x="60" y="719" type="line"/>
      <point x="60" y="632"/>
      <point x="63" y="557"/>
      <point x="89" y="487" type="curve"/>
      <point x="129" y="487" type="line"/>
      <point x="155" y="557"/>
      <point x="158" y="632"/>
      <point x="158" y="719" type="curve"/>
      <point x="139" y="735" type="line"/>
    </contour>
  </outline>
</glyph>
<glyph name="parenleft" format="1">
  <advance width="314"/>
  <unicode hex="0028"/>
  <outline>
    <contour>
      <point x="130" y="288" type="curve" smooth="yes"/>
      <point x="130.0" y="501.0"/>
      <point x="195.117741563" y="623.434383169"/>
      <point x="304" y="714" type="curve"/>
      <point x="288" y="736" type="line"/>
      <point x="160" y="674"/>
      <point x="45" y="520"/>
      <point x="45" y="288" type="curve" smooth="yes"/>
      <point x="45" y="56"/>
      <point x="160" y="-98"/>
      <point x="288" y="-160" type="curve"/>
      <point x="304" y="-138" type="line"/>
      <point x="195.117741563" y="-47.4343831695"/>
      <point x="130.0" y="75.0"/>
    </contour>
  </outline>
</glyph>
<glyph name="asterisk" format="1">
  <advance width="326"/>
  <unicode hex="002A"/>
  <outline>
    <contour>
      <point x="171" y="621" type="curve"/>
      <point x="168" y="623" type="line"/>
      <point x="124" y="666"/>
      <point x="94" y="692"/>
      <point x="66" y="706" type="curve"/>
      <point x="48" y="701" type="line"/>
      <point x="30" y="668" type="line"/>
      <point x="32" y="650" type="line"/>
      <point x="60" y="634"/>
      <point x="98" y="620"/>
      <point x="155" y="604" type="curve"/>
      <point x="158" y="602" type="line"/>
      <point x="202" y="560"/>
      <point x="233" y="533"/>
      <point x="261" y="519" type="curve"/>
      <point x="278" y="524" type="line"/>
      <point x="296" y="557" type="line"/>
      <point x="294" y="575" type="line"/>
      <point x="267" y="591"/>
      <point x="228" y="606"/>
    </contour>
    <contour>
      <point x="171" y="604" type="line"/>
      <point x="228" y="619"/>
      <point x="267" y="634"/>
      <point x="294" y="650" type="curve"/>
      <point x="296" y="668" type="line"/>
      <point x="278" y="701" type="line"/>
      <point x="261" y="706" type="line"/>
      <point x="233" y="692"/>
      <point x="202" y="665"/>
      <point x="158" y="623" type="curve"/>
      <point x="155" y="621" type="line"/>
      <point x="98" y="605"/>
      <point x="60" y="591"/>
      <point x="32" y="575" type="curve"/>
      <point x="30" y="557" type="line"/>
      <point x="48" y="524" type="line"/>
      <point x="66" y="519" type="line"/>
      <point x="94" y="533"/>
      <point x="124" y="559"/>
      <point x="168" y="602" type="curve"/>
    </contour>
    <contour>
      <point x="175" y="610" type="curve"/>
      <point x="175" y="614" type="line"/>
      <point x="190" y="673"/>
      <point x="197" y="713"/>
      <point x="197" y="743" type="curve"/>
      <point x="183" y="755" type="line"/>
      <point x="144" y="755" type="line"/>
      <point x="130" y="743" type="line"/>
      <point x="130" y="713"/>
      <point x="137" y="673"/>
      <point x="152" y="614" type="curve"/>
      <point x="152" y="610" type="line"/>
      <point x="137" y="552"/>
      <point x="130" y="511"/>
      <point x="130" y="481" type="curve"/>
      <point x="144" y="469" type="line"/>
      <point x="183" y="469" type="line"/>
      <point x="197" y="481" type="line"/>
      <point x="197" y="511"/>
      <point x="190" y="552"/>
    </contour>
  </outline>
</glyph>
<glyph name="plus" format="1">
  <advance width="346"/>
  <unicode hex="002B"/>
  <outline>
    <contour>
      <point x="196" y="308" type="curve" smooth="yes"/>
      <point x="196" y="258"/>
      <point x="199" y="216"/>
      <point x="203" y="167" type="curve"/>
      <point x="134" y="167" type="line"/>
      <point x="138" y="216"/>
      <point x="141" y="258"/>
      <point x="141" y="308" type="curve" smooth="yes"/>
      <point x="141" y="358"/>
      <point x="138" y="400"/>
      <point x="134" y="449" type="curve"/>
      <point x="203" y="449" type="line"/>
      <point x="199" y="400"/>
      <point x="196" y="358"/>
    </contour>
    <contour>
      <point x="168" y="334" type="curve" smooth="yes"/>
      <point x="217" y="334"/>
      <point x="258" y="337"/>
      <point x="306" y="341" type="curve"/>
      <point x="306" y="276" type="line"/>
      <point x="258" y="280"/>
      <point x="217" y="283"/>
      <point x="168" y="283" type="curve" smooth="yes"/>
      <point x="119" y="283"/>
      <point x="78" y="280"/>
      <point x="30" y="276" type="curve"/>
      <point x="30" y="341" type="line"/>
      <point x="78" y="337"/>
      <point x="119" y="334"/>
    </contour>
  </outline>
</glyph>
<glyph name="slash" format="1">
  <advance width="375"/>
  <unicode hex="002F"/>
  <outline>
    <contour>
      <point x="420" y="750" type="line"/>
      <point x="356" y="750" type="line"/>
      <point x="-44" y="-250" type="line"/>
      <point x="20" y="-250" type="line"/>
    </contour>
  </outline>
</glyph>
<glyph name="zero" format="1">
  <advance width="663"/>
  <unicode hex="0030"/>
  <outline>
    <contour>
      <point x="345" y="25" type="curve" smooth="yes"/>
      <point x="219.0" y="25.0"/>
      <point x="149.0" y="159.967509025"/>
      <point x="149" y="304" type="curve" smooth="yes"/>
      <point x="149.0" y="418.076190476"/>
      <point x="204.0" y="516.0"/>
      <point x="318" y="516" type="curve" smooth="yes"/>
      <point x="444.0" y="516.0"/>
      <point x="514.0" y="379.021582734"/>
      <point x="514" y="236" type="curve" smooth="yes"/>
      <point x="514.0" y="120.909090909"/>
      <point x="459.0" y="25.0"/>
    </contour>
    <contour>
      <point x="341" y="560" type="curve" smooth="yes"/>
      <point x="163" y="560"/>
      <point x="50" y="422"/>
      <point x="50" y="256" type="curve" smooth="yes"/>
      <point x="50" y="69"/>
      <point x="186" y="-20"/>
      <point x="322" y="-20" type="curve" smooth="yes"/>
      <point x="500" y="-20"/>
      <point x="613" y="117"/>
      <point x="613" y="284" type="curve" smooth="yes"/>
      <point x="613" y="470"/>
      <point x="477" y="560"/>
    </contour>
  </outline>
</glyph>
<glyph name="three" format="1">
  <advance width="488"/>
  <unicode hex="0033"/>
  <outline>
    <contour>
      <point x="189" y="-123" type="curve" smooth="yes"/>
      <point x="134" y="-123"/>
      <point x="97" y="-79"/>
      <point x="84" y="41" type="curve"/>
      <point x="70" y="55" type="line"/>
      <point x="26" y="37"/>
      <point x="5" y="-1"/>
      <point x="5" y="-41" type="curve" smooth="yes"/>
      <point x="5" y="-112"/>
      <point x="79" y="-166"/>
      <point x="202" y="-166" type="curve" smooth="yes"/>
      <point x="341" y="-166"/>
      <point x="458" y="-91"/>
      <point x="458" y="34" type="curve" smooth="yes"/>
      <point x="458" y="158"/>
      <point x="352" y="231"/>
      <point x="199" y="231" type="curve"/>
      <point x="158" y="219" type="line"/>
      <point x="309" y="219"/>
      <point x="431" y="301"/>
      <point x="431" y="400" type="curve" smooth="yes"/>
      <point x="431" y="500"/>
      <point x="339" y="560"/>
      <point x="221" y="560" type="curve" smooth="yes"/>
      <point x="104" y="560"/>
      <point x="29" y="511"/>
      <point x="29" y="445" type="curve" smooth="yes"/>
      <point x="29" y="409"/>
      <point x="51" y="378"/>
      <point x="94" y="360" type="curve"/>
      <point x="108" y="374" type="line"/>
      <point x="116" y="475"/>
      <point x="160" y="519"/>
      <point x="201" y="519" type="curve" smooth="yes"/>
      <point x="275" y="519"/>
      <point x="327" y="478"/>
      <point x="327" y="400" type="curve" smooth="yes"/>
      <point x="327" y="307"/>
      <point x="230" y="240"/>
      <point x="111" y="230" type="curve"/>
      <point x="111" y="198" type="line"/>
      <point x="248" y="194"/>
      <point x="350" y="132"/>
      <point x="350" y="32" type="curve" smooth="yes"/>
      <point x="350" y="-69"/>
      <point x="281" y="-123"/>
    </contour>
  </outline>
</glyph>
<glyph name="four" format="1">
  <advance width="596"/>
  <unicode hex="0034"/>
  <outline>
    <contour>
      <point x="358" y="278" type="curve"/>
      <point x="358" y="-164" type="line"/>
      <point x="450" y="-164" type="line"/>
      <point x="450" y="293" type="line"/>
      <point x="435" y="308" type="line"/>
      <point x="408" y="304"/>
      <point x="378" y="293"/>
    </contour>
    <contour>
      <point x="520" y="20" type="line" smooth="yes"/>
      <point x="563" y="20"/>
      <point x="586" y="38"/>
      <point x="586" y="72" type="curve" smooth="yes"/>
      <point x="586" y="83"/>
      <point x="584" y="94"/>
      <point x="581" y="104" type="curve"/>
      <point x="402" y="103"/>
      <point x="199" y="87"/>
      <point x="83" y="73" type="curve"/>
      <point x="72" y="69"/>
      <point x="79" y="54"/>
      <point x="75" y="47" type="curve"/>
      <point x="450" y="527" type="line"/>
      <point x="438" y="540" type="line"/>
      <point x="359" y="540" type="line"/>
      <point x="5" y="33" type="line"/>
      <point x="18" y="20" type="line"/>
    </contour>
  </outline>
</glyph>
<glyph name="six" format="1">
  <advance width="579"/>
  <unicode hex="0036"/>
  <outline>
    <contour>
      <point x="288" y="-20" type="curve" smooth="yes"/>
      <point x="425" y="-20"/>
      <point x="539" y="74"/>
      <point x="539" y="218" type="curve" smooth="yes"/>
      <point x="539" y="345"/>
      <point x="438" y="421"/>
      <point x="317" y="421" type="curve" smooth="yes"/>
      <point x="217" y="421"/>
      <point x="146" y="363"/>
      <point x="123" y="284" type="curve"/>
      <point x="150" y="253" type="line"/>
      <point x="166" y="321"/>
      <point x="227" y="368"/>
      <point x="294" y="368" type="curve" smooth="yes"/>
      <point x="384" y="368"/>
      <point x="439" y="302"/>
      <point x="439" y="190" type="curve" smooth="yes"/>
      <point x="439" y="97"/>
      <point x="383" y="24"/>
      <point x="303" y="24" type="curve" smooth="yes"/>
      <point x="208" y="24"/>
      <point x="150" y="101"/>
      <point x="150" y="261" type="curve" smooth="yes"/>
      <point x="150" y="476"/>
      <point x="209" y="655"/>
      <point x="354" y="655" type="curve" smooth="yes"/>
      <point x="412" y="655"/>
      <point x="431" y="612"/>
      <point x="454" y="513" type="curve"/>
      <point x="468" y="499" type="line"/>
      <point x="512" y="517"/>
      <point x="533" y="550"/>
      <point x="533" y="586" type="curve" smooth="yes"/>
      <point x="533" y="640"/>
      <point x="483" y="696"/>
      <point x="368" y="696" type="curve" smooth="yes"/>
      <point x="167" y="696"/>
      <point x="45" y="508"/>
      <point x="45" y="273" type="curve" smooth="yes"/>
      <point x="45" y="58"/>
      <point x="164" y="-20"/>
    </contour>
  </outline>
</glyph>
<glyph name="seven" format="1">
  <advance width="473"/>
  <unicode hex="0037"/>
  <outline>
    <contour>
      <point x="35" y="-131" type="curve"/>
      <point x="47" y="-144" type="line"/>
      <point x="147" y="-144" type="line"/>
      <point x="283" y="63"/>
      <point x="380" y="269"/>
      <point x="453" y="524" type="curve"/>
      <point x="437" y="540" type="line"/>
      <point x="81" y="540" type="line" smooth="yes"/>
      <point x="38" y="540"/>
      <point x="15" y="522"/>
      <point x="15" y="486" type="curve" smooth="yes"/>
      <point x="15" y="475"/>
      <point x="17" y="464"/>
      <point x="20" y="454" type="curve"/>
      <point x="164" y="456"/>
      <point x="312" y="468"/>
      <point x="404" y="479" type="curve"/>
      <point x="400" y="517" type="line"/>
      <point x="311" y="276"/>
      <point x="189" y="76"/>
    </contour>
  </outline>
</glyph>
<glyph name="eight" format="1">
  <advance width="572"/>
  <unicode hex="0038"/>
  <outline>
    <contour>
      <point x="287" y="-20" type="curve" smooth="yes"/>
      <point x="431" y="-20"/>
      <point x="542" y="52"/>
      <point x="542" y="168" type="curve" smooth="yes"/>
      <point x="542" y="296"/>
      <point x="409" y="344"/>
      <point x="313" y="391" type="curve" smooth="yes"/>
      <point x="219" y="438"/>
      <point x="181" y="474"/>
      <point x="181" y="544" type="curve" smooth="yes"/>
      <point x="181" y="612"/>
      <point x="229" y="656"/>
      <point x="293" y="656" type="curve" smooth="yes"/>
      <point x="358" y="656"/>
      <point x="403" y="610"/>
      <point x="403" y="534" type="curve" smooth="yes"/>
      <point x="403" y="473"/>
      <point x="368" y="419"/>
      <point x="323" y="378" type="curve"/>
      <point x="307" y="367"/>
      <point x="308" y="361"/>
      <point x="309" y="352" type="curve"/>
      <point x="409" y="367"/>
      <point x="499" y="446"/>
      <point x="499" y="534" type="curve" smooth="yes"/>
      <point x="499" y="629"/>
      <point x="415" y="696"/>
      <point x="293" y="696" type="curve" smooth="yes"/>
      <point x="170" y="696"/>
      <point x="84" y="624"/>
      <point x="84" y="522" type="curve" smooth="yes"/>
      <point x="84" y="441"/>
      <point x="127" y="378"/>
      <point x="237" y="323" type="curve" smooth="yes"/>
      <point x="352" y="266"/>
      <point x="436" y="240"/>
      <point x="436" y="155" type="curve" smooth="yes"/>
      <point x="436" y="80"/>
      <point x="380" y="21"/>
      <point x="287" y="21" type="curve" smooth="yes"/>
      <point x="193" y="21"/>
      <point x="138" y="81"/>
      <point x="138" y="166" type="curve" smooth="yes"/>
      <point x="138" y="235"/>
      <point x="188" y="288"/>
      <point x="241" y="329" type="curve"/>
      <point x="247" y="339"/>
      <point x="235" y="339"/>
      <point x="230" y="347" type="curve"/>
      <point x="129" y="336"/>
      <point x="35" y="255"/>
      <point x="35" y="163" type="curve" smooth="yes"/>
      <point x="35" y="50"/>
      <point x="137" y="-20"/>
    </contour>
  </outline>
</glyph>
<glyph name="nine" format="1">
  <advance width="579"/>
  <unicode hex="0039"/>
  <outline>
    <contour>
      <point x="267" y="113" type="curve" smooth="yes"/>
      <point x="368" y="113"/>
      <point x="437" y="171"/>
      <point x="460" y="250" type="curve"/>
      <point x="433" y="281" type="line"/>
      <point x="417" y="213"/>
      <point x="355" y="166"/>
      <point x="289" y="166" type="curve" smooth="yes"/>
      <point x="199" y="166"/>
      <point x="144" y="233"/>
      <point x="144" y="347" type="curve" smooth="yes"/>
      <point x="144" y="442"/>
      <point x="198" y="516"/>
      <point x="275" y="516" type="curve" smooth="yes"/>
      <point x="373" y="516"/>
      <point x="433" y="439"/>
      <point x="433" y="279" type="curve" smooth="yes"/>
      <point x="433" y="60"/>
      <point x="373" y="-115"/>
      <point x="219" y="-115" type="curve" smooth="yes"/>
      <point x="193.0" y="-115.0"/>
      <point x="174.0" y="-112.0"/>
      <point x="131" y="-95" type="curve"/>
      <point x="178" y="-135" type="line"/>
      <point x="129" y="27" type="line"/>
      <point x="115" y="41" type="line"/>
      <point x="71" y="23"/>
      <point x="50" y="-10"/>
      <point x="50" y="-46" type="curve" smooth="yes"/>
      <point x="50.0" y="-100.0"/>
      <point x="100.914285714" y="-156.0"/>
      <point x="215" y="-156" type="curve" smooth="yes"/>
      <point x="416" y="-156"/>
      <point x="538" y="32"/>
      <point x="538" y="267" type="curve" smooth="yes"/>
      <point x="538" y="482"/>
      <point x="417" y="560"/>
      <point x="290" y="560" type="curve" smooth="yes"/>
      <point x="156" y="560"/>
      <point x="44" y="465"/>
      <point x="44" y="319" type="curve" smooth="yes"/>
      <point x="44" y="190"/>
      <point x="146" y="113"/>
    </contour>
  </outline>
</glyph>
<glyph name="equal" format="1">
  <advance width="356"/>
  <unicode hex="003D"/>
  <outline>
    <contour>
      <point x="40" y="281" type="line"/>
      <point x="40" y="215" type="line"/>
      <point x="336" y="215" type="line"/>
      <point x="336" y="281" type="line"/>
    </contour>
    <contour>
      <point x="40" y="402" type="line"/>
      <point x="40" y="336" type="line"/>
      <point x="336" y="336" type="line"/>
      <point x="336" y="402" type="line"/>
    </contour>
  </outline>
</glyph>
<glyph name="A" format="1">
  <advance width="767"/>
  <unicode hex="0041"/>
  <outline>
    <contour>
      <point x="185" y="214" type="line"/>
      <point x="246" y="219"/>
      <point x="299" y="223"/>
      <point x="363" y="223" type="curve" smooth="yes"/>
      <point x="427" y="223"/>
      <point x="480" y="219"/>
      <point x="541" y="214" type="curve"/>
      <point x="541" y="287" type="line"/>
      <point x="480" y="282"/>
      <point x="427" y="278"/>
      <point x="363" y="278" type="curve" smooth="yes"/>
      <point x="299" y="278"/>
      <point x="246" y="282"/>
      <point x="185" y="287" type="curve"/>
    </contour>
    <contour>
      <point x="571" y="36" type="line"/>
      <point x="594" y="67" type="line"/>
      <point x="523" y="60"/>
      <point x="473" y="43"/>
      <point x="458" y="28" type="curve"/>
      <point x="463" y="0" type="line"/>
      <point x="757" y="0" type="line"/>
      <point x="762" y="28" type="line"/>
      <point x="746" y="43"/>
      <point x="710" y="60"/>
      <point x="651" y="68" type="curve"/>
      <point x="695" y="36" type="line"/>
      <point x="422" y="715" type="line"/>
      <point x="208" y="715" type="line"/>
      <point x="203" y="687" type="line"/>
      <point x="227" y="667"/>
      <point x="277" y="650"/>
      <point x="323" y="642" type="curve"/>
      <point x="329" y="682" type="line"/>
      <point x="71" y="38" type="line"/>
      <point x="115" y="70" type="line"/>
      <point x="56" y="62"/>
      <point x="21" y="43"/>
      <point x="5" y="28" type="curve"/>
      <point x="10" y="0" type="line"/>
      <point x="267" y="0" type="line"/>
      <point x="272" y="28" type="line"/>
      <point x="257" y="43"/>
      <point x="208" y="62"/>
      <point x="138" y="69" type="curve"/>
      <point x="160" y="38" type="line"/>
      <point x="394" y="695" type="line"/>
      <point x="353" y="657" type="line"/>
    </contour>
  </outline>
</glyph>
<glyph name="B" format="1">
  <advance width="698"/>
  <unicode hex="0042"/>
  <outline>
    <contour>
      <point x="360" y="43" type="curve" smooth="yes"/>
      <point x="310" y="43"/>
      <point x="274" y="50"/>
      <point x="217" y="68" type="curve"/>
      <point x="246" y="29" type="line"/>
      <point x="246" y="688" type="line"/>
      <point x="218" y="647" type="line"/>
      <point x="274" y="668"/>
      <point x="308" y="674"/>
      <point x="342" y="674" type="curve" smooth="yes"/>
      <point x="428" y="674"/>
      <point x="486" y="626"/>
      <point x="486" y="540" type="curve" smooth="yes"/>
      <point x="486" y="470"/>
      <point x="440" y="400"/>
      <point x="334" y="400" type="curve" smooth="yes"/>
      <point x="285" y="400"/>
      <point x="258" y="405"/>
      <point x="223" y="418" type="curve"/>
      <point x="218" y="348" type="line"/>
      <point x="318" y="348" type="line" smooth="yes"/>
      <point x="445" y="348"/>
      <point x="528" y="295"/>
      <point x="528" y="198" type="curve" smooth="yes"/>
      <point x="528" y="104"/>
      <point x="473" y="43"/>
    </contour>
    <contour>
      <point x="45" y="0" type="line"/>
      <point x="118" y="0" type="line" smooth="yes"/>
      <point x="223" y="0"/>
      <point x="261" y="-5"/>
      <point x="356" y="-5" type="curve" smooth="yes"/>
      <point x="529" y="-5"/>
      <point x="653" y="82"/>
      <point x="653" y="201" type="curve" smooth="yes"/>
      <point x="653" y="323"/>
      <point x="551" y="387"/>
      <point x="368" y="387" type="curve"/>
      <point x="319" y="368" type="line"/>
      <point x="492" y="368"/>
      <point x="608" y="451"/>
      <point x="608" y="565" type="curve" smooth="yes"/>
      <point x="608" y="673"/>
      <point x="498" y="720"/>
      <point x="344" y="720" type="curve" smooth="yes"/>
      <point x="271" y="720"/>
      <point x="220" y="715"/>
      <point x="117" y="715" type="curve" smooth="yes"/>
      <point x="45" y="715" type="line"/>
      <point x="40" y="687" type="line"/>
      <point x="58" y="672"/>
      <point x="104" y="656"/>
      <point x="168" y="648" type="curve"/>
      <point x="138" y="683" type="line"/>
      <point x="138" y="32" type="line"/>
      <point x="168" y="66" type="line"/>
      <point x="104" y="58"/>
      <point x="58" y="42"/>
      <point x="40" y="28" type="curve"/>
    </contour>
  </outline>
</glyph>
<glyph name="C" format="1">
  <advance width="719"/>
  <unicode hex="0043"/>
  <outline>
    <contour>
      <point x="585" y="615" type="curve"/>
      <point x="564" y="661" type="line"/>
      <point x="565" y="568"/>
      <point x="596" y="502"/>
      <point x="627" y="478" type="curve"/>
      <point x="655" y="483" type="line"/>
      <point x="655" y="672" type="line"/>
      <point x="597" y="710"/>
      <point x="511" y="735"/>
      <point x="421" y="735" type="curve" smooth="yes"/>
      <point x="225" y="735"/>
      <point x="55" y="586"/>
      <point x="55" y="345" type="curve" smooth="yes"/>
      <point x="55" y="110"/>
      <point x="214" y="-20"/>
      <point x="401" y="-20" type="curve" smooth="yes"/>
      <point x="532" y="-20"/>
      <point x="624" y="40"/>
      <point x="684" y="147" type="curve"/>
      <point x="663" y="164" type="line"/>
      <point x="595" y="99"/>
      <point x="530" y="65"/>
      <point x="434" y="65" type="curve" smooth="yes"/>
      <point x="263" y="65"/>
      <point x="170" y="217"/>
      <point x="170" y="392" type="curve" smooth="yes"/>
      <point x="170" y="575"/>
      <point x="267" y="677"/>
      <point x="423" y="677" type="curve" smooth="yes"/>
      <point x="490" y="677"/>
      <point x="546" y="652"/>
    </contour>
  </outline>
</glyph>
<glyph name="D" format="1">
  <advance width="814"/>
  <unicode hex="0044"/>
  <outline>
    <contour>
      <point x="45" y="0" type="line"/>
      <point x="118" y="0" type="line" smooth="yes"/>
      <point x="226" y="0"/>
      <point x="263" y="-5"/>
      <point x="357" y="-5" type="curve" smooth="yes"/>
      <point x="621" y="-5"/>
      <point x="759" y="167"/>
      <point x="759" y="368" type="curve" smooth="yes"/>
      <point x="759" y="622"/>
      <point x="591" y="720"/>
      <point x="354" y="720" type="curve" smooth="yes"/>
      <point x="277" y="720"/>
      <point x="226" y="715"/>
      <point x="117" y="715" type="curve" smooth="yes"/>
      <point x="45" y="715" type="line"/>
      <point x="40" y="687" type="line"/>
      <point x="58" y="672"/>
      <point x="104" y="656"/>
      <point x="168" y="648" type="curve"/>
      <point x="138" y="683" type="line"/>
      <point x="138" y="32" type="line"/>
      <point x="168" y="66" type="line"/>
      <point x="104" y="58"/>
      <point x="58" y="42"/>
      <point x="40" y="28" type="curve"/>
    </contour>
    <contour>
      <point x="366" y="45" type="curve" smooth="yes"/>
      <point x="313" y="45"/>
      <point x="275" y="51"/>
      <point x="218" y="71" type="curve"/>
      <point x="246" y="31" type="line"/>
      <point x="246" y="685" type="line"/>
      <point x="218" y="645" type="line"/>
      <point x="275" y="665"/>
      <point x="313" y="671"/>
      <point x="356" y="671" type="curve" smooth="yes"/>
      <point x="547" y="671"/>
      <point x="644" y="533"/>
      <point x="644" y="368" type="curve" smooth="yes"/>
      <point x="644" y="186"/>
      <point x="564" y="45"/>
    </contour>
  </outline>
</glyph>
<glyph name="F" format="1">
  <advance width="623"/>
  <unicode hex="0046"/>
  <outline>
    <contour>
      <point x="530" y="374" type="curve"/>
      <point x="424" y="373"/>
      <point x="334" y="369"/>
      <point x="222" y="364" type="curve"/>
      <point x="222" y="317" type="line"/>
      <point x="466" y="309" type="line" smooth="yes"/>
      <point x="514" y="307"/>
      <point x="535" y="323"/>
      <point x="535" y="352" type="curve" smooth="yes"/>
      <point x="535" y="359"/>
      <point x="533" y="368"/>
    </contour>
    <contour>
      <point x="522" y="652" type="line"/>
      <point x="487" y="684" type="line"/>
      <point x="502" y="596"/>
      <point x="521" y="542"/>
      <point x="547" y="506" type="curve"/>
      <point x="575" y="511" type="line"/>
      <point x="588" y="697" type="line"/>
      <point x="570" y="715" type="line"/>
      <point x="45" y="715" type="line"/>
      <point x="40" y="687" type="line"/>
      <point x="58" y="672"/>
      <point x="104" y="656"/>
      <point x="168" y="648" type="curve"/>
      <point x="138" y="683" type="line"/>
      <point x="138" y="32" type="line"/>
      <point x="168" y="66" type="line"/>
      <point x="104" y="58"/>
      <point x="58" y="42"/>
      <point x="40" y="28" type="curve"/>
      <point x="45" y="0" type="line"/>
      <point x="369" y="0" type="line"/>
      <point x="374" y="28" type="line"/>
      <point x="345" y="47"/>
      <point x="292" y="59"/>
      <point x="216" y="64" type="curve"/>
      <point x="246" y="32" type="line"/>
      <point x="246" y="701" type="line"/>
      <point x="236" y="667" type="line"/>
    </contour>
  </outline>
</glyph>
<glyph name="G" format="1">
  <advance width="793"/>
  <unicode hex="0047"/>
  <outline>
    <contour>
      <point x="429" y="735" type="curve" smooth="yes"/>
      <point x="226" y="735"/>
      <point x="55" y="581"/>
      <point x="55" y="345" type="curve" smooth="yes"/>
      <point x="55" y="105"/>
      <point x="217" y="-20"/>
      <point x="422" y="-20" type="curve" smooth="yes"/>
      <point x="528" y="-20"/>
      <point x="633" y="22"/>
      <point x="689" y="68" type="curve"/>
      <point x="689" y="278" type="line"/>
      <point x="659" y="244" type="line"/>
      <point x="724" y="253"/>
      <point x="766" y="270"/>
      <point x="783" y="284" type="curve"/>
      <point x="778" y="312" type="line"/>
      <point x="449" y="312" type="line"/>
      <point x="444" y="284" type="line"/>
      <point x="461.0" y="266.0"/>
      <point x="526" y="253"/>
      <point x="610" y="245" type="curve"/>
      <point x="583" y="278" type="line"/>
      <point x="583" y="47" type="line"/>
      <point x="608" y="93" type="line"/>
      <point x="575" y="63"/>
      <point x="514" y="39"/>
      <point x="441" y="39" type="curve" smooth="yes"/>
      <point x="250" y="39"/>
      <point x="170" y="216"/>
      <point x="170" y="392" type="curve" smooth="yes"/>
      <point x="170.0" y="563.0"/>
      <point x="267" y="677"/>
      <point x="433" y="677" type="curve" smooth="yes"/>
      <point x="501.240740741" y="677.0"/>
      <point x="558.618245134" y="652.362177693"/>
      <point x="598" y="615" type="curve"/>
      <point x="577" y="661" type="line"/>
      <point x="578" y="568"/>
      <point x="609" y="502"/>
      <point x="640" y="478" type="curve"/>
      <point x="668" y="483" type="line"/>
      <point x="668" y="672" type="line"/>
      <point x="609.483167632" y="710.33861431"/>
      <point x="532.296610169" y="735.0"/>
    </contour>
  </outline>
</glyph>
<glyph name="H" format="1">
  <advance width="852"/>
  <unicode hex="0048"/>
  <outline>
    <contour>
      <point x="713" y="683" type="line"/>
      <point x="683" y="648" type="line"/>
      <point x="747" y="656"/>
      <point x="794" y="672"/>
      <point x="812" y="687" type="curve"/>
      <point x="807" y="715" type="line"/>
      <point x="512" y="715" type="line"/>
      <point x="507" y="687" type="line"/>
      <point x="521" y="672"/>
      <point x="568" y="656"/>
      <point x="636" y="649" type="curve"/>
      <point x="606" y="683" type="line"/>
      <point x="606" y="32" type="line"/>
      <point x="636" y="65" type="line"/>
      <point x="568" y="58"/>
      <point x="521" y="42"/>
      <point x="507" y="28" type="curve"/>
      <point x="512" y="0" type="line"/>
      <point x="807" y="0" type="line"/>
      <point x="812" y="28" type="line"/>
      <point x="794" y="42"/>
      <point x="747" y="58"/>
      <point x="683" y="66" type="curve"/>
      <point x="713" y="32" type="line"/>
    </contour>
    <contour>
      <point x="228" y="331" type="line"/>
      <point x="296" y="337"/>
      <point x="355" y="340"/>
      <point x="426" y="340" type="curve" smooth="yes"/>
      <point x="497" y="340"/>
      <point x="556" y="337"/>
      <point x="624" y="331" type="curve"/>
      <point x="624" y="404" type="line"/>
      <point x="556" y="398"/>
      <point x="497" y="395"/>
      <point x="426" y="395" type="curve" smooth="yes"/>
      <point x="355" y="395"/>
      <point x="296" y="398"/>
      <point x="228" y="404" type="curve"/>
    </contour>
    <contour>
      <point x="246" y="683" type="line"/>
      <point x="216" y="649" type="line"/>
      <point x="284" y="656"/>
      <point x="331" y="672"/>
      <point x="345" y="687" type="curve"/>
      <point x="340" y="715" type="line"/>
      <point x="45" y="715" type="line"/>
      <point x="40" y="687" type="line"/>
      <point x="58" y="672"/>
      <point x="105" y="656"/>
      <point x="169" y="648" type="curve"/>
      <point x="139" y="683" type="line"/>
      <point x="139" y="32" type="line"/>
      <point x="169" y="66" type="line"/>
      <point x="105" y="58"/>
      <point x="58" y="42"/>
      <point x="40" y="28" type="curve"/>
      <point x="45" y="0" type="line"/>
      <point x="340" y="0" type="line"/>
      <point x="345" y="28" type="line"/>
      <point x="331" y="42"/>
      <point x="284" y="58"/>
      <point x="216" y="65" type="curve"/>
      <point x="246" y="32" type="line"/>
    </contour>
  </outline>
</glyph>
<glyph name="I" format="1">
  <advance width="394"/>
  <unicode hex="0049"/>
  <outline>
    <contour>
      <point x="354" y="0" type="line"/>
      <point x="359" y="28" type="line"/>
      <point x="340" y="43"/>
      <point x="286" y="58"/>
      <point x="219" y="65" type="curve"/>
      <point x="249" y="32" type="line"/>
      <point x="249" y="683" type="line"/>
      <point x="219" y="649" type="line"/>
      <point x="286" y="656"/>
      <point x="340" y="671"/>
      <point x="359" y="687" type="curve"/>
      <point x="354" y="715" type="line"/>
      <point x="40" y="715" type="line"/>
      <point x="35" y="687" type="line"/>
      <point x="54" y="671"/>
      <point x="108" y="656"/>
      <point x="175" y="649" type="curve"/>
      <point x="145" y="683" type="line"/>
      <point x="145" y="32" type="line"/>
      <point x="175" y="65" type="line"/>
      <point x="108" y="58"/>
      <point x="54" y="43"/>
      <point x="35" y="28" type="curve"/>
      <point x="40" y="0" type="line"/>
    </contour>
  </outline>
</glyph>
<glyph name="J" format="1">
  <advance width="563"/>
  <unicode hex="004A"/>
  <outline>
    <contour>
      <point x="423" y="262" type="curve" smooth="yes"/>
      <point x="423" y="683" type="line"/>
      <point x="393" y="649" type="line"/>
      <point x="460" y="656"/>
      <point x="514" y="671"/>
      <point x="533" y="687" type="curve"/>
      <point x="528" y="715" type="line"/>
      <point x="214" y="715" type="line"/>
      <point x="209" y="687" type="line"/>
      <point x="228" y="671"/>
      <point x="282" y="656"/>
      <point x="349" y="649" type="curve"/>
      <point x="319" y="683" type="line"/>
      <point x="319" y="301" type="line" smooth="yes"/>
      <point x="319" y="112.0"/>
      <point x="278" y="37"/>
      <point x="195" y="37" type="curve" smooth="yes"/>
      <point x="166" y="37"/>
      <point x="146" y="42"/>
      <point x="109" y="62" type="curve"/>
      <point x="139" y="18" type="line"/>
      <point x="113" y="222" type="line"/>
      <point x="95" y="231" type="line"/>
      <point x="50" y="220"/>
      <point x="15" y="183"/>
      <point x="15" y="128" type="curve" smooth="yes"/>
      <point x="15" y="40"/>
      <point x="99.0" y="-20.0"/>
      <point x="208" y="-20" type="curve" smooth="yes"/>
      <point x="346" y="-20"/>
      <point x="423" y="64"/>
    </contour>
  </outline>
</glyph>
<glyph name="L" format="1">
  <advance width="677"/>
  <unicode hex="004C"/>
  <outline>
    <contour>
      <point x="45" y="715" type="line"/>
      <point x="40" y="687" type="line"/>
      <point x="58" y="672"/>
      <point x="104" y="656"/>
      <point x="168" y="648" type="curve"/>
      <point x="138" y="683" type="line"/>
      <point x="138" y="32" type="line"/>
      <point x="168" y="66" type="line"/>
      <point x="104" y="58"/>
      <point x="58" y="42"/>
      <point x="40" y="28" type="curve"/>
      <point x="45" y="0" type="line"/>
      <point x="45" y="0"/>
      <point x="602" y="0"/>
      <point x="602" y="0" type="curve"/>
      <point x="620" y="18" type="line"/>
      <point x="627" y="225" type="line"/>
      <point x="599" y="230" type="line"/>
      <point x="563.262066576" y="184.334862847"/>
      <point x="536" y="124"/>
      <point x="508" y="33" type="curve"/>
      <point x="547" y="63" type="line"/>
      <point x="216" y="49" type="line"/>
      <point x="246" y="20" type="line"/>
      <point x="246" y="683" type="line"/>
      <point x="216" y="648" type="line"/>
      <point x="280" y="656"/>
      <point x="326" y="672"/>
      <point x="344" y="687" type="curve"/>
      <point x="339" y="715" type="line"/>
    </contour>
  </outline>
</glyph>
<glyph name="M" format="1">
  <advance width="949"/>
  <unicode hex="004D"/>
  <outline>
    <contour>
      <point x="421" y="63" type="line"/>
      <point x="449" y="52" type="line"/>
      <point x="449" y="52"/>
      <point x="489" y="70"/>
      <point x="489" y="70" type="curve"/>
      <point x="710" y="656" type="line"/>
      <point x="694" y="627" type="line"/>
      <point x="728" y="34" type="line"/>
      <point x="756" y="68" type="line"/>
      <point x="689" y="59"/>
      <point x="645" y="42"/>
      <point x="627" y="28" type="curve"/>
      <point x="632" y="0" type="line"/>
      <point x="928" y="0" type="line"/>
      <point x="933" y="28" type="line"/>
      <point x="916" y="42"/>
      <point x="874" y="59"/>
      <point x="809" y="68" type="curve"/>
      <point x="842" y="34" type="line"/>
      <point x="777" y="682" type="line"/>
      <point x="763" y="639" type="line"/>
      <point x="821" y="648"/>
      <point x="872" y="667"/>
      <point x="897" y="687" type="curve"/>
      <point x="892" y="715" type="line"/>
      <point x="674" y="715" type="line"/>
      <point x="444" y="111" type="line"/>
      <point x="484" y="150" type="line"/>
      <point x="295" y="715" type="line"/>
      <point x="46" y="715" type="line"/>
      <point x="41" y="687" type="line"/>
      <point x="66" y="667"/>
      <point x="117" y="648"/>
      <point x="175" y="639" type="curve"/>
      <point x="160" y="682" type="line"/>
      <point x="101" y="36" type="line"/>
      <point x="134" y="69" type="line"/>
      <point x="69" y="62"/>
      <point x="27" y="43"/>
      <point x="9" y="28" type="curve"/>
      <point x="14" y="0" type="line"/>
      <point x="281" y="0" type="line"/>
      <point x="286" y="28" type="line"/>
      <point x="267" y="43"/>
      <point x="223" y="62"/>
      <point x="156" y="69" type="curve"/>
      <point x="184" y="36" type="line"/>
      <point x="216" y="695" type="line"/>
      <point x="194" y="663" type="line"/>
    </contour>
  </outline>
</glyph>
<glyph name="N" format="1">
  <advance width="845"/>
  <unicode hex="004E"/>
  <outline>
    <contour>
      <point x="535" y="715" type="line"/>
      <point x="530" y="687" type="line"/>
      <point x="549" y="671"/>
      <point x="593" y="652"/>
      <point x="660" y="645" type="curve"/>
      <point x="629" y="679" type="line"/>
      <point x="652" y="68" type="line"/>
      <point x="676" y="115" type="line"/>
      <point x="676" y="115"/>
      <point x="247" y="715"/>
      <point x="247" y="715" type="curve"/>
      <point x="45" y="715" type="line"/>
      <point x="40" y="687" type="line"/>
      <point x="54" y="672"/>
      <point x="101" y="656"/>
      <point x="169" y="649" type="curve"/>
      <point x="139" y="683" type="line"/>
      <point x="139" y="36" type="line"/>
      <point x="169" y="69" type="line"/>
      <point x="104" y="62"/>
      <point x="62" y="43"/>
      <point x="44" y="28" type="curve"/>
      <point x="49" y="0" type="line"/>
      <point x="314" y="0" type="line"/>
      <point x="319" y="28" type="line"/>
      <point x="300" y="43"/>
      <point x="256" y="62"/>
      <point x="189" y="69" type="curve"/>
      <point x="220" y="36" type="line"/>
      <point x="198" y="653" type="line"/>
      <point x="166" y="634" type="line"/>
      <point x="166.0" y="634.0"/>
      <point x="649" y="-10"/>
      <point x="649" y="-10" type="curve"/>
      <point x="710" y="-10" type="line"/>
      <point x="710" y="679" type="line"/>
      <point x="680" y="645" type="line"/>
      <point x="745" y="652"/>
      <point x="787" y="671"/>
      <point x="805" y="687" type="curve"/>
      <point x="800" y="715" type="line"/>
    </contour>
  </outline>
</glyph>
<glyph name="O" format="1">
  <advance width="818"/>
  <unicode hex="004F"/>
  <outline>
    <contour>
      <point x="168" y="404" type="curve" smooth="yes"/>
      <point x="168.0" y="552.0"/>
      <point x="241.651785714" y="677.0"/>
      <point x="394" y="677" type="curve" smooth="yes"/>
      <point x="570.377952756" y="677.0"/>
      <point x="650.0" y="505.0"/>
      <point x="650" y="312" type="curve" smooth="yes"/>
      <point x="650.0" y="164.0"/>
      <point x="576.348214286" y="39.0"/>
      <point x="424" y="39" type="curve" smooth="yes"/>
      <point x="247.622047244" y="39.0"/>
      <point x="168.0" y="211.0"/>
    </contour>
    <contour>
      <point x="55" y="340" type="curve" smooth="yes"/>
      <point x="55" y="99"/>
      <point x="228" y="-20"/>
      <point x="400" y="-20" type="curve" smooth="yes"/>
      <point x="622" y="-20"/>
      <point x="763" y="159"/>
      <point x="763" y="375" type="curve" smooth="yes"/>
      <point x="763" y="616"/>
      <point x="590" y="735"/>
      <point x="418" y="735" type="curve" smooth="yes"/>
      <point x="196" y="735"/>
      <point x="55" y="556"/>
    </contour>
  </outline>
</glyph>
<glyph name="Q" format="1">
  <advance width="818"/>
  <unicode hex="0051"/>
  <outline>
    <contour>
      <point x="444" y="-4" type="line"/>
      <point x="506" y="-99"/>
      <point x="585" y="-181"/>
      <point x="694" y="-181" type="curve" smooth="yes"/>
      <point x="781" y="-181"/>
      <point x="830" y="-129"/>
      <point x="846" y="-69" type="curve"/>
      <point x="832" y="-51" type="line"/>
      <point x="791" y="-70"/>
      <point x="756" y="-77"/>
      <point x="711" y="-77" type="curve" smooth="yes"/>
      <point x="638" y="-77"/>
      <point x="561" y="-45"/>
      <point x="498" y="15" type="curve"/>
    </contour>
    <component base="O"/>
  </outline>
</glyph>
<glyph name="T" format="1">
  <advance width="676"/>
  <unicode hex="0054"/>
  <outline>
    <contour>
      <point x="33" y="715" type="line"/>
      <point x="15" y="697" type="line"/>
      <point x="28" y="514" type="line"/>
      <point x="56" y="509" type="line"/>
      <point x="81.7726956482" y="544.685270897"/>
      <point x="98" y="599"/>
      <point x="113" y="687" type="curve"/>
      <point x="78" y="655" type="line"/>
      <point x="324" y="672" type="line"/>
      <point x="324.0" y="672.0"/>
      <point x="284.0" y="688.0"/>
      <point x="284" y="688" type="curve"/>
      <point x="284" y="32" type="line"/>
      <point x="314" y="65" type="line"/>
      <point x="247" y="58"/>
      <point x="194" y="43"/>
      <point x="175" y="28" type="curve"/>
      <point x="180" y="0" type="line"/>
      <point x="496" y="0" type="line"/>
      <point x="501" y="28" type="line"/>
      <point x="482" y="43"/>
      <point x="429" y="58"/>
      <point x="362" y="65" type="curve"/>
      <point x="392" y="32" type="line"/>
      <point x="392" y="688" type="line"/>
      <point x="392.0" y="688.0"/>
      <point x="357.0" y="672.0"/>
      <point x="357" y="672" type="curve"/>
      <point x="598" y="655" type="line"/>
      <point x="563" y="687" type="line"/>
      <point x="578" y="599"/>
      <point x="594.227304352" y="544.685270897"/>
      <point x="620" y="509" type="curve"/>
      <point x="648" y="514" type="line"/>
      <point x="661" y="697" type="line"/>
      <point x="643" y="715" type="line"/>
    </contour>
  </outline>
</glyph>
<glyph name="U" format="1">
  <advance width="795"/>
  <unicode hex="0055"/>
  <outline>
    <contour>
      <point x="427" y="40" type="curve" smooth="yes"/>
      <point x="302" y="40"/>
      <point x="227" y="125"/>
      <point x="227" y="281" type="curve" smooth="yes"/>
      <point x="227" y="683" type="line"/>
      <point x="197" y="649" type="line"/>
      <point x="265" y="656"/>
      <point x="312" y="672"/>
      <point x="326" y="687" type="curve"/>
      <point x="321" y="715" type="line"/>
      <point x="25" y="715" type="line"/>
      <point x="20" y="687" type="line"/>
      <point x="38" y="672"/>
      <point x="85" y="656"/>
      <point x="149" y="648" type="curve"/>
      <point x="119" y="683" type="line"/>
      <point x="119" y="265" type="line" smooth="yes"/>
      <point x="119" y="78.0"/>
      <point x="211" y="-20"/>
      <point x="397" y="-20" type="curve" smooth="yes"/>
      <point x="567" y="-20"/>
      <point x="677" y="78"/>
      <point x="677" y="281" type="curve" smooth="yes"/>
      <point x="677" y="681" type="line"/>
      <point x="647" y="644" type="line"/>
      <point x="711" y="652"/>
      <point x="757" y="672"/>
      <point x="775" y="687" type="curve"/>
      <point x="770" y="715" type="line"/>
      <point x="512" y="715" type="line"/>
      <point x="507" y="687" type="line"/>
      <point x="521" y="672"/>
      <point x="567" y="652"/>
      <point x="635" y="645" type="curve"/>
      <point x="605" y="681" type="line"/>
      <point x="605" y="260" type="line" smooth="yes"/>
      <point x="605" y="119"/>
      <point x="529" y="40"/>
    </contour>
  </outline>
</glyph>
<glyph name="Z" format="1">
  <advance width="656"/>
  <unicode hex="005A"/>
  <outline>
    <contour>
      <point x="621" y="697" type="line"/>
      <point x="603" y="715" type="line"/>
      <point x="86" y="715" type="line"/>
      <point x="68" y="697" type="line"/>
      <point x="81" y="511" type="line"/>
      <point x="109" y="506" type="line"/>
      <point x="134.772695648" y="541.685270897"/>
      <point x="151" y="596"/>
      <point x="166" y="684" type="curve"/>
      <point x="131" y="653" type="line"/>
      <point x="509" y="670" type="line"/>
      <point x="493" y="687" type="line"/>
      <point x="35" y="18" type="line"/>
      <point x="53" y="0" type="line"/>
      <point x="53" y="0"/>
      <point x="592" y="0"/>
      <point x="592" y="0" type="curve"/>
      <point x="610" y="18" type="line"/>
      <point x="617" y="225" type="line"/>
      <point x="589" y="230" type="line"/>
      <point x="553.262066576" y="184.334862847"/>
      <point x="526" y="124"/>
      <point x="498" y="33" type="curve"/>
      <point x="537" y="63" type="line"/>
      <point x="149" y="47" type="line"/>
      <point x="159" y="21" type="line"/>
    </contour>
  </outline>
</glyph>
<glyph name="bracketleft" format="1">
  <advance width="300"/>
  <unicode hex="005B"/>
  <outline>
    <contour>
      <point x="221" y="-130" type="line" smooth="yes"/>
      <point x="269" y="-130"/>
      <point x="290" y="-118"/>
      <point x="290" y="-94" type="curve" smooth="yes"/>
      <point x="290" y="-89"/>
      <point x="289" y="-82"/>
      <point x="285" y="-77" type="curve"/>
      <point x="135" y="-77" type="line"/>
      <point x="153" y="-95" type="line"/>
      <point x="153" y="690" type="line"/>
      <point x="135" y="682" type="line"/>
      <point x="221" y="682" type="line" smooth="yes"/>
      <point x="269" y="682"/>
      <point x="290" y="694"/>
      <point x="290" y="718" type="curve" smooth="yes"/>
      <point x="290" y="723"/>
      <point x="289" y="730"/>
      <point x="285" y="735" type="curve"/>
      <point x="85" y="735" type="line"/>
      <point x="85" y="-130" type="line"/>
    </contour>
  </outline>
</glyph>
<glyph name="a" format="1">
  <advance width="578"/>
  <unicode hex="0061"/>
  <outline>
    <contour>
      <point x="50" y="111" type="curve" smooth="yes"/>
      <point x="50" y="24"/>
      <point x="109" y="-20"/>
      <point x="204" y="-20" type="curve" smooth="yes"/>
      <point x="292" y="-20"/>
      <point x="372" y="43"/>
      <point x="404" y="157" type="curve"/>
      <point x="393" y="148" type="line"/>
      <point x="388" y="130"/>
      <point x="384" y="104"/>
      <point x="384" y="82" type="curve" smooth="yes"/>
      <point x="384" y="28"/>
      <point x="406" y="-10"/>
      <point x="469" y="-10" type="curve" smooth="yes"/>
      <point x="518" y="-10"/>
      <point x="548" y="13"/>
      <point x="563" y="31" type="curve"/>
      <point x="563" y="51" type="line"/>
      <point x="443" y="95" type="line"/>
      <point x="471" y="58" type="line"/>
      <point x="471" y="335" type="line" smooth="yes"/>
      <point x="471" y="466"/>
      <point x="420" y="520"/>
      <point x="273" y="520" type="curve" smooth="yes"/>
      <point x="163" y="520"/>
      <point x="74" y="465"/>
      <point x="74" y="397" type="curve" smooth="yes"/>
      <point x="74" y="350"/>
      <point x="104" y="326"/>
      <point x="141" y="313" type="curve"/>
      <point x="159" y="322" type="line"/>
      <point x="185" y="489" type="line"/>
      <point x="153" y="446" type="line"/>
      <point x="196" y="467"/>
      <point x="221" y="473"/>
      <point x="249" y="473" type="curve" smooth="yes"/>
      <point x="339" y="473"/>
      <point x="375" y="416"/>
      <point x="375" y="288" type="curve" smooth="yes"/>
      <point x="375" y="243" type="line"/>
      <point x="378" y="236"/>
      <point x="379" y="224"/>
      <point x="380" y="213" type="curve"/>
      <point x="352" y="101"/>
      <point x="289" y="44"/>
      <point x="233" y="44" type="curve" smooth="yes"/>
      <point x="181" y="44"/>
      <point x="153" y="77"/>
      <point x="153" y="122" type="curve" smooth="yes"/>
      <point x="153" y="186"/>
      <point x="207" y="217"/>
      <point x="288" y="217" type="curve" smooth="yes"/>
      <point x="339" y="217"/>
      <point x="357" y="213"/>
      <point x="388" y="206" type="curve"/>
      <point x="388" y="274" type="line"/>
      <point x="158" y="274"/>
      <point x="50" y="230"/>
    </contour>
  </outline>
</glyph>
<glyph name="b" format="1">
  <advance width="632"/>
  <unicode hex="0062"/>
  <outline>
    <contour>
      <point x="587" y="281" type="curve" smooth="yes"/>
      <point x="587" y="432"/>
      <point x="500" y="520"/>
      <point x="382" y="520" type="curve" smooth="yes"/>
      <point x="249" y="520"/>
      <point x="192" y="400"/>
      <point x="164" y="313" type="curve"/>
      <point x="194" y="264" type="line"/>
      <point x="194" y="609" type="line"/>
      <point x="206" y="776" type="line"/>
      <point x="190" y="795" type="line"/>
      <point x="120" y="795"/>
      <point x="60" y="786"/>
      <point x="15" y="766" type="curve"/>
      <point x="15" y="746" type="line"/>
      <point x="38" y="724"/>
      <point x="71" y="707"/>
      <point x="129" y="677" type="curve"/>
      <point x="102" y="719" type="line"/>
      <point x="102" y="-27" type="line"/>
      <point x="117" y="-42" type="line"/>
      <point x="154" y="-17"/>
      <point x="188" y="24"/>
      <point x="208" y="62" type="curve"/>
      <point x="198" y="74" type="line"/>
      <point x="198" y="242" type="line" smooth="yes"/>
      <point x="198" y="355.0"/>
      <point x="279" y="451"/>
      <point x="356" y="451" type="curve" smooth="yes"/>
      <point x="437" y="451"/>
      <point x="479" y="362"/>
      <point x="479" y="246" type="curve" smooth="yes"/>
      <point x="479" y="113"/>
      <point x="422" y="32"/>
      <point x="330" y="32" type="curve" smooth="yes"/>
      <point x="272" y="32"/>
      <point x="222" y="59"/>
      <point x="186" y="110" type="curve"/>
      <point x="161" y="80" type="line"/>
      <point x="193" y="20"/>
      <point x="248" y="-20"/>
      <point x="330" y="-20" type="curve" smooth="yes"/>
      <point x="478" y="-20"/>
      <point x="587" y="109"/>
    </contour>
  </outline>
</glyph>
<glyph name="c" format="1">
  <advance width="519"/>
  <unicode hex="0063"/>
  <outline>
    <contour>
      <point x="45" y="235" type="curve" smooth="yes"/>
      <point x="45" y="77"/>
      <point x="151" y="-20"/>
      <point x="283" y="-20" type="curve" smooth="yes"/>
      <point x="382" y="-20"/>
      <point x="452" y="28"/>
      <point x="489" y="118" type="curve"/>
      <point x="470" y="133" type="line"/>
      <point x="427" y="90"/>
      <point x="385" y="62"/>
      <point x="314" y="62" type="curve" smooth="yes"/>
      <point x="202.354651163" y="62.0"/>
      <point x="141" y="147"/>
      <point x="141" y="283" type="curve" smooth="yes"/>
      <point x="141" y="398"/>
      <point x="192" y="474"/>
      <point x="295" y="474" type="curve" smooth="yes"/>
      <point x="329" y="474"/>
      <point x="354" y="469"/>
      <point x="383" y="447" type="curve"/>
      <point x="353" y="492" type="line"/>
      <point x="380" y="309" type="line"/>
      <point x="398" y="300" type="line"/>
      <point x="439" y="313"/>
      <point x="472" y="341"/>
      <point x="472" y="396" type="curve" smooth="yes"/>
      <point x="472" y="474"/>
      <point x="397" y="520"/>
      <point x="297" y="520" type="curve" smooth="yes"/>
      <point x="150" y="520"/>
      <point x="45" y="406"/>
    </contour>
  </outline>
</glyph>
<glyph name="h" format="1">
  <advance width="663"/>
  <unicode hex="0068"/>
  <outline>
    <contour>
      <point x="20" y="0" type="line"/>
      <point x="291" y="0" type="line"/>
      <point x="296" y="28" type="line"/>
      <point x="280" y="42"/>
      <point x="236" y="58"/>
      <point x="174" y="66" type="curve"/>
      <point x="204" y="32" type="line"/>
      <point x="204" y="245" type="line" smooth="yes"/>
      <point x="204" y="356"/>
      <point x="294" y="451"/>
      <point x="368" y="451" type="curve" smooth="yes"/>
      <point x="436.781609195" y="451.0"/>
      <point x="456" y="407.0"/>
      <point x="456" y="321" type="curve" smooth="yes"/>
      <point x="456" y="32" type="line"/>
      <point x="486" y="66" type="line"/>
      <point x="424" y="58"/>
      <point x="380" y="42"/>
      <point x="364" y="28" type="curve"/>
      <point x="369" y="0" type="line"/>
      <point x="643" y="0" type="line"/>
      <point x="648" y="28" type="line"/>
      <point x="632" y="42"/>
      <point x="588" y="58"/>
      <point x="526" y="66" type="curve"/>
      <point x="556" y="32" type="line"/>
      <point x="556" y="344" type="line" smooth="yes"/>
      <point x="556" y="457"/>
      <point x="510" y="520"/>
      <point x="398" y="520" type="curve" smooth="yes"/>
      <point x="264" y="520"/>
      <point x="198" y="401"/>
      <point x="174" y="313" type="curve"/>
      <point x="200" y="315" type="line"/>
      <point x="200" y="609" type="line"/>
      <point x="212" y="776" type="line"/>
      <point x="196" y="795" type="line"/>
      <point x="126" y="795"/>
      <point x="66" y="786"/>
      <point x="21" y="766" type="curve"/>
      <point x="21" y="746" type="line"/>
      <point x="44" y="724"/>
      <point x="77" y="707"/>
      <point x="135" y="677" type="curve"/>
      <point x="108" y="719" type="line"/>
      <point x="108" y="689"/>
      <point x="108" y="62"/>
      <point x="108" y="32" type="curve"/>
      <point x="138" y="66" type="line"/>
      <point x="76" y="58"/>
      <point x="32" y="42"/>
      <point x="15" y="28" type="curve"/>
    </contour>
  </outline>
</glyph>
<glyph name="i" format="1">
  <advance width="321"/>
  <unicode hex="0069"/>
  <outline>
    <contour>
      <point x="166" y="591" type="curve" smooth="yes"/>
      <point x="200" y="591"/>
      <point x="230" y="626"/>
      <point x="230" y="667" type="curve" smooth="yes"/>
      <point x="230" y="709"/>
      <point x="200" y="744"/>
      <point x="166" y="744" type="curve" smooth="yes"/>
      <point x="132" y="744"/>
      <point x="102" y="709"/>
      <point x="102" y="668" type="curve" smooth="yes"/>
      <point x="102" y="626"/>
      <point x="132" y="591"/>
    </contour>
    <contour>
      <point x="209" y="319" type="line"/>
      <point x="221" y="486" type="line"/>
      <point x="205" y="505" type="line"/>
      <point x="135" y="505"/>
      <point x="75" y="496"/>
      <point x="31" y="476" type="curve"/>
      <point x="31" y="456" type="line"/>
      <point x="54" y="434"/>
      <point x="87" y="417"/>
      <point x="145" y="387" type="curve"/>
      <point x="118" y="429" type="line"/>
      <point x="118" y="32" type="line"/>
      <point x="148" y="66" type="line"/>
      <point x="86" y="58"/>
      <point x="42" y="42"/>
      <point x="25" y="28" type="curve"/>
      <point x="30" y="0" type="line"/>
      <point x="296" y="0" type="line"/>
      <point x="301" y="28" type="line"/>
      <point x="285" y="42"/>
      <point x="241" y="58"/>
      <point x="179" y="66" type="curve"/>
      <point x="209" y="32" type="line"/>
    </contour>
  </outline>
</glyph>
<glyph name="j" format="1">
  <advance width="273"/>
  <unicode hex="006A"/>
  <outline>
    <contour>
      <point x="144" y="591" type="curve" smooth="yes"/>
      <point x="178" y="591"/>
      <point x="208" y="626"/>
      <point x="208" y="667" type="curve" smooth="yes"/>
      <point x="208" y="709"/>
      <point x="178" y="744"/>
      <point x="144" y="744" type="curve" smooth="yes"/>
      <point x="110" y="744"/>
      <point x="80" y="709"/>
      <point x="80" y="668" type="curve" smooth="yes"/>
      <point x="80" y="626"/>
      <point x="110" y="591"/>
    </contour>
    <contour>
      <point x="96" y="4" type="line" smooth="yes"/>
      <point x="96" y="-134"/>
      <point x="65" y="-201"/>
      <point x="7" y="-201" type="curve" smooth="yes"/>
      <point x="-7" y="-201"/>
      <point x="-18" y="-199"/>
      <point x="-53" y="-182" type="curve"/>
      <point x="-21" y="-225" type="line"/>
      <point x="-47" y="-58" type="line"/>
      <point x="-65" y="-49" type="line"/>
      <point x="-101" y="-63"/>
      <point x="-130" y="-91"/>
      <point x="-130" y="-135" type="curve" smooth="yes"/>
      <point x="-130" y="-200"/>
      <point x="-71" y="-240"/>
      <point x="17" y="-240" type="curve" smooth="yes"/>
      <point x="126" y="-240"/>
      <point x="187" y="-166"/>
      <point x="187" y="-17" type="curve" smooth="yes"/>
      <point x="187" y="319" type="line"/>
      <point x="199" y="486" type="line"/>
      <point x="183" y="505" type="line"/>
      <point x="113.0" y="505.0"/>
      <point x="52.0424245808" y="496.484848642"/>
      <point x="8" y="476" type="curve"/>
      <point x="8" y="456" type="line"/>
      <point x="31" y="434"/>
      <point x="64" y="417"/>
      <point x="123" y="388" type="curve"/>
      <point x="96" y="429" type="line"/>
    </contour>
  </outline>
</glyph>
<glyph name="m" format="1">
  <advance width="1000"/>
  <unicode hex="006D"/>
  <outline>
    <contour>
      <point x="35.0" y="0.0" type="line"/>
      <point x="306.0" y="0.0" type="line"/>
      <point x="311.0" y="28.0" type="line"/>
      <point x="295.0" y="42.0"/>
      <point x="251" y="58"/>
      <point x="189" y="66" type="curve"/>
      <point x="219" y="32" type="line"/>
      <point x="219.0" y="245.0" type="line" smooth="yes"/>
      <point x="219.0" y="349.0"/>
      <point x="298.0" y="451.0"/>
      <point x="376.0" y="451.0" type="curve" smooth="yes"/>
      <point x="439.0" y="451.0"/>
      <point x="456.0" y="407.0"/>
      <point x="456.0" y="321.0" type="curve" smooth="yes"/>
      <point x="456" y="32" type="line"/>
      <point x="486" y="66" type="line"/>
      <point x="424" y="58"/>
      <point x="380.0" y="42.0"/>
      <point x="364.0" y="28.0" type="curve"/>
      <point x="369.0" y="0.0" type="line"/>
      <point x="643.0" y="0.0" type="line"/>
      <point x="648.0" y="28.0" type="line"/>
      <point x="632.0" y="42.0"/>
      <point x="588" y="58"/>
      <point x="526" y="66" type="curve"/>
      <point x="556" y="32" type="line"/>
      <point x="556.0" y="243.0" type="line" smooth="yes"/>
      <point x="556.0" y="331.0"/>
      <point x="635.0" y="451.0"/>
      <point x="713.0" y="451.0" type="curve" smooth="yes"/>
      <point x="776.0" y="451.0"/>
      <point x="793.0" y="407.0"/>
      <point x="793.0" y="321.0" type="curve" smooth="yes"/>
      <point x="793" y="32" type="line"/>
      <point x="823" y="66" type="line"/>
      <point x="761" y="58"/>
      <point x="717.0" y="42.0"/>
      <point x="701.0" y="28.0" type="curve"/>
      <point x="706.0" y="0.0" type="line"/>
      <point x="980.0" y="0.0" type="line"/>
      <point x="985.0" y="28.0" type="line"/>
      <point x="969.0" y="42.0"/>
      <point x="925" y="58"/>
      <point x="863" y="66" type="curve"/>
      <point x="893" y="32" type="line"/>
      <point x="893.0" y="344.0" type="line" smooth="yes"/>
      <point x="893.0" y="457.0"/>
      <point x="849.0" y="520.0"/>
      <point x="743.0" y="520.0" type="curve" smooth="yes"/>
      <point x="622.0" y="520.0"/>
      <point x="549.0" y="394.0"/>
      <point x="533.0" y="320.0" type="curve"/>
      <point x="542.0" y="320.0" type="line"/>
      <point x="556.0" y="321.0" type="line"/>
      <point x="551.0" y="344.0" type="line"/>
      <point x="551.0" y="457.0"/>
      <point x="508.0" y="520.0"/>
      <point x="406.0" y="520.0" type="curve" smooth="yes"/>
      <point x="279.0" y="520.0"/>
      <point x="210.0" y="402.0"/>
      <point x="188.0" y="313.0" type="curve" smooth="yes"/>
      <point x="183.0" y="292.0"/>
      <point x="189.0" y="269.0"/>
      <point x="189.0" y="269.0" type="curve"/>
      <point x="217.0" y="486.0" type="line"/>
      <point x="201.0" y="505.0" type="line"/>
      <point x="136.0" y="505.0"/>
      <point x="78.0" y="495.0"/>
      <point x="36.0" y="476.0" type="curve"/>
      <point x="36.0" y="456.0" type="line"/>
      <point x="59" y="434"/>
      <point x="92" y="417"/>
      <point x="150" y="387" type="curve"/>
      <point x="123" y="429" type="line"/>
      <point x="123" y="32" type="line"/>
      <point x="153" y="66" type="line"/>
      <point x="91" y="58"/>
      <point x="47.0" y="42.0"/>
      <point x="30.0" y="28.0" type="curve"/>
    </contour>
  </outline>
</glyph>
<glyph name="q" format="1">
  <advance width="623"/>
  <unicode hex="0071"/>
  <outline>
    <contour>
      <point x="438" y="236" type="line"/>
      <point x="438" y="-173" type="line"/>
      <point x="468" y="-140" type="line"/>
      <point x="395" y="-147"/>
      <point x="342" y="-163"/>
      <point x="320" y="-177" type="curve"/>
      <point x="325" y="-205" type="line"/>
      <point x="618" y="-205" type="line"/>
      <point x="623" y="-177" type="line"/>
      <point x="606" y="-163"/>
      <point x="562" y="-147"/>
      <point x="500" y="-139" type="curve"/>
      <point x="530" y="-173" type="line"/>
      <point x="530" y="527" type="line"/>
      <point x="515" y="542" type="line"/>
      <point x="478" y="517"/>
      <point x="444" y="476"/>
      <point x="424" y="438" type="curve"/>
      <point x="434" y="419" type="line" smooth="yes"/>
      <point x="434" y="258" type="line" smooth="yes"/>
      <point x="434" y="145"/>
      <point x="353" y="49"/>
      <point x="276" y="49" type="curve" smooth="yes"/>
      <point x="195" y="49"/>
      <point x="153" y="138"/>
      <point x="153" y="254" type="curve" smooth="yes"/>
      <point x="153" y="387"/>
      <point x="210" y="468"/>
      <point x="302" y="468" type="curve" smooth="yes"/>
      <point x="360" y="468"/>
      <point x="410" y="441"/>
      <point x="446" y="390" type="curve"/>
      <point x="471" y="420" type="line"/>
      <point x="439" y="480"/>
      <point x="384" y="520"/>
      <point x="302" y="520" type="curve" smooth="yes"/>
      <point x="154" y="520"/>
      <point x="45" y="391"/>
      <point x="45" y="219" type="curve" smooth="yes"/>
      <point x="45" y="68"/>
      <point x="132" y="-20"/>
      <point x="250" y="-20" type="curve" smooth="yes"/>
      <point x="383" y="-20"/>
      <point x="440" y="100"/>
      <point x="468" y="187" type="curve"/>
    </contour>
  </outline>
</glyph>
<glyph name="s" format="1">
  <advance width="507"/>
  <unicode hex="0073"/>
  <outline>
    <contour>
      <point x="50" y="43" type="line"/>
      <point x="86" y="5"/>
      <point x="163" y="-20"/>
      <point x="249" y="-20" type="curve" smooth="yes"/>
      <point x="372" y="-20"/>
      <point x="462" y="51"/>
      <point x="462" y="141" type="curve" smooth="yes"/>
      <point x="462" y="240"/>
      <point x="374" y="270"/>
      <point x="282" y="303" type="curve" smooth="yes"/>
      <point x="208" y="329"/>
      <point x="151" y="352"/>
      <point x="151" y="402" type="curve" smooth="yes"/>
      <point x="151.0" y="444.794520548"/>
      <point x="191.0" y="473.0"/>
      <point x="256" y="473" type="curve" smooth="yes"/>
      <point x="306" y="473"/>
      <point x="344" y="458"/>
      <point x="379" y="416" type="curve"/>
      <point x="344" y="461" type="line"/>
      <point x="349" y="385"/>
      <point x="384.254562312" y="352.567952524"/>
      <point x="406" y="336" type="curve"/>
      <point x="434" y="341" type="line"/>
      <point x="434" y="469" type="line"/>
      <point x="398" y="500"/>
      <point x="333" y="520"/>
      <point x="257" y="520" type="curve" smooth="yes"/>
      <point x="148" y="520"/>
      <point x="63" y="459"/>
      <point x="63" y="374" type="curve" smooth="yes"/>
      <point x="63" y="268"/>
      <point x="161" y="236"/>
      <point x="237" y="210" type="curve" smooth="yes"/>
      <point x="319" y="183"/>
      <point x="370" y="165"/>
      <point x="370" y="108" type="curve" smooth="yes"/>
      <point x="370.0" y="60.1951219512"/>
      <point x="336" y="28"/>
      <point x="253" y="28" type="curve" smooth="yes"/>
      <point x="197" y="28"/>
      <point x="145" y="42"/>
      <point x="105" y="93" type="curve"/>
      <point x="145" y="44" type="line"/>
      <point x="143" y="125"/>
      <point x="112.954627618" y="174.129604231"/>
      <point x="78" y="206" type="curve"/>
      <point x="50" y="201" type="line"/>
    </contour>
  </outline>
</glyph>
<glyph name="t" format="1">
  <advance width="416"/>
  <unicode hex="0074"/>
  <outline>
    <contour>
      <point x="380" y="502" type="curve"/>
      <point x="281" y="501"/>
      <point x="186" y="490"/>
      <point x="149" y="488" type="curve"/>
      <point x="149" y="437" type="line"/>
      <point x="323" y="437" type="line" smooth="yes"/>
      <point x="361" y="437"/>
      <point x="384" y="450"/>
      <point x="384" y="477" type="curve" smooth="yes"/>
      <point x="384" y="485"/>
      <point x="383" y="493"/>
    </contour>
    <contour>
      <point x="104" y="490" type="curve"/>
      <point x="137" y="528" type="line"/>
      <point x="70" y="509"/>
      <point x="28" y="487"/>
      <point x="5" y="464" type="curve"/>
      <point x="5" y="436" type="line"/>
      <point x="134" y="436" type="line"/>
      <point x="109" y="479" type="line"/>
      <point x="109" y="174" type="line" smooth="yes"/>
      <point x="109" y="43"/>
      <point x="153" y="-20"/>
      <point x="254" y="-20" type="curve" smooth="yes"/>
      <point x="319" y="-20"/>
      <point x="374" y="18"/>
      <point x="401" y="99" type="curve"/>
      <point x="385" y="112" type="line"/>
      <point x="357" y="76"/>
      <point x="327" y="54"/>
      <point x="284" y="54" type="curve" smooth="yes"/>
      <point x="222.2375" y="54.0"/>
      <point x="203" y="100"/>
      <point x="203" y="196" type="curve" smooth="yes"/>
      <point x="203" y="662" type="line"/>
      <point x="158" y="662" type="line"/>
      <point x="134.540590716" y="627.320873233"/>
      <point x="115" y="575"/>
    </contour>
  </outline>
</glyph>
<glyph name="x" format="1">
  <advance width="567"/>
  <unicode hex="0078"/>
  <outline>
    <contour>
      <point x="404" y="39" type="curve"/>
      <point x="419" y="69" type="line"/>
      <point x="363" y="56"/>
      <point x="323" y="41"/>
      <point x="308" y="28" type="curve"/>
      <point x="313" y="0" type="line"/>
      <point x="562" y="0" type="line"/>
      <point x="567" y="28" type="line"/>
      <point x="553" y="43"/>
      <point x="521" y="57"/>
      <point x="467" y="68" type="curve"/>
      <point x="520" y="39" type="line"/>
      <point x="501" y="62"/>
      <point x="182" y="438"/>
      <point x="163" y="461" type="curve"/>
      <point x="148" y="431" type="line"/>
      <point x="204" y="444"/>
      <point x="243" y="458"/>
      <point x="259" y="472" type="curve"/>
      <point x="254" y="500" type="line"/>
      <point x="5" y="500" type="line"/>
      <point x="0" y="472" type="line"/>
      <point x="14" y="457"/>
      <point x="46" y="443"/>
      <point x="100" y="432" type="curve"/>
      <point x="47" y="461" type="line"/>
      <point x="66" y="438"/>
      <point x="385" y="62"/>
    </contour>
    <contour>
      <point x="253" y="256" type="line"/>
      <point x="42" y="41" type="line"/>
      <point x="97" y="68" type="line"/>
      <point x="44" y="57"/>
      <point x="15" y="43"/>
      <point x="1" y="28" type="curve"/>
      <point x="6" y="0" type="line"/>
      <point x="235" y="0" type="line"/>
      <point x="240" y="28" type="line"/>
      <point x="224" y="42"/>
      <point x="184" y="57"/>
      <point x="113" y="66" type="curve"/>
      <point x="129" y="39" type="line"/>
      <point x="300" y="242" type="line"/>
    </contour>
    <contour>
      <point x="315" y="244" type="line"/>
      <point x="525" y="459" type="line"/>
      <point x="470" y="431" type="line"/>
      <point x="523" y="444"/>
      <point x="552" y="456"/>
      <point x="566" y="472" type="curve"/>
      <point x="561" y="500" type="line"/>
      <point x="332" y="500" type="line"/>
      <point x="327" y="472" type="line"/>
      <point x="343" y="458"/>
      <point x="383" y="443"/>
      <point x="454" y="434" type="curve"/>
      <point x="438" y="461" type="line"/>
      <point x="267" y="258" type="line"/>
    </contour>
  </outline>
</glyph>
<glyph name="y" format="1">
  <advance width="622"/>
  <unicode hex="0079"/>
  <outline>
    <contour>
      <point x="182" y="-220" type="curve" smooth="yes"/>
      <point x="264" y="-220"/>
      <point x="289" y="-139"/>
      <point x="361" y="22" type="curve" smooth="yes"/>
      <point x="559" y="465" type="line"/>
      <point x="512" y="434" type="line"/>
      <point x="570" y="442"/>
      <point x="607" y="458"/>
      <point x="622" y="472" type="curve"/>
      <point x="617" y="500" type="line"/>
      <point x="374" y="500" type="line"/>
      <point x="369" y="472" type="line"/>
      <point x="386" y="457"/>
      <point x="435" y="443"/>
      <point x="499" y="434" type="curve"/>
      <point x="474" y="466" type="line"/>
      <point x="310" y="7" type="line"/>
      <point x="348" y="33" type="line"/>
      <point x="177" y="466" type="line"/>
      <point x="153" y="434" type="line"/>
      <point x="217" y="443"/>
      <point x="266" y="457"/>
      <point x="283" y="472" type="curve"/>
      <point x="278" y="500" type="line"/>
      <point x="5" y="500" type="line"/>
      <point x="0" y="472" type="line"/>
      <point x="15" y="458"/>
      <point x="52" y="442"/>
      <point x="110" y="434" type="curve"/>
      <point x="109" y="434"/>
      <point x="73" y="457"/>
      <point x="62" y="465" type="curve"/>
      <point x="309" y="-65" type="line"/>
      <point x="304" y="-9" type="line"/>
      <point x="280" y="-52"/>
      <point x="260" y="-73"/>
      <point x="218" y="-126" type="curve"/>
      <point x="266" y="-94" type="line"/>
      <point x="106" y="-137" type="line"/>
      <point x="92" y="-151" type="line"/>
      <point x="96" y="-189"/>
      <point x="130" y="-220"/>
    </contour>
  </outline>
</glyph>
<glyph name="z" format="1">
  <advance width="521"/>
  <unicode hex="007A"/>
  <outline>
    <contour>
      <point x="53" y="487" type="line"/>
      <point x="59" y="324" type="line"/>
      <point x="87" y="319" type="line"/>
      <point x="107" y="344"/>
      <point x="128" y="401"/>
      <point x="136" y="475" type="curve"/>
      <point x="103" y="444" type="line"/>
      <point x="377" y="456" type="line"/>
      <point x="373" y="480" type="line"/>
      <point x="26" y="13" type="line"/>
      <point x="39" y="0" type="line"/>
      <point x="39.0" y="0.0"/>
      <point x="463.0" y="0.0"/>
      <point x="463" y="0" type="curve"/>
      <point x="476" y="13" type="line"/>
      <point x="483" y="197" type="line"/>
      <point x="455" y="202" type="line"/>
      <point x="430" y="176"/>
      <point x="401" y="109"/>
      <point x="387" y="24" type="curve"/>
      <point x="422" y="55" type="line"/>
      <point x="102" y="44" type="line"/>
      <point x="142" y="15" type="line"/>
      <point x="486" y="487" type="line"/>
      <point x="474" y="500" type="line"/>
      <point x="66" y="500" type="line"/>
    </contour>
  </outline>
</glyph>
<glyph name="paragraph" format="1">
  <advance width="668"/>
  <unicode hex="00B6"/>
  <outline>
    <contour>
      <point x="278" y="373" type="line"/>
      <point x="278" y="-100" type="line"/>
      <point x="354" y="-100" type="line"/>
      <point x="354" y="683" type="line"/>
      <point x="325" y="650" type="line"/>
      <point x="482" y="650" type="line"/>
      <point x="454" y="683" type="line"/>
      <point x="454" y="-100" type="line"/>
      <point x="530" y="-100" type="line"/>
      <point x="530" y="683" type="line"/>
      <point x="500" y="649" type="line"/>
      <point x="564" y="657"/>
      <point x="610" y="673"/>
      <point x="628" y="687" type="curve"/>
      <point x="623" y="715" type="line"/>
      <point x="534" y="715" type="line" smooth="yes"/>
      <point x="431" y="715"/>
      <point x="368" y="720"/>
      <point x="289" y="720" type="curve" smooth="yes"/>
      <point x="129" y="720"/>
      <point x="35" y="658"/>
      <point x="35" y="533" type="curve" smooth="yes"/>
      <point x="35" y="417"/>
      <point x="114" y="335"/>
      <point x="268" y="335" type="curve" smooth="yes"/>
      <point x="268" y="335"/>
      <point x="326" y="335"/>
      <point x="326" y="335" type="curve"/>
    </contour>
  </outline>
</glyph>
<glyph name="endash" format="1">
  <advance width="490"/>
  <unicode hex="2013"/>
  <outline>
    <contour>
      <point x="30" y="340" type="line"/>
      <point x="30" y="276" type="line"/>
      <point x="460" y="276" type="line"/>
      <point x="460" y="340" type="line"/>
    </contour>
  </outline>
</glyph>
<glyph name="quoteright" format="1">
  <advance width="237"/>
  <unicode hex="2019"/>
  <outline>
    <contour>
      <point x="55" y="446" type="line"/>
      <point x="125" y="481"/>
      <point x="187" y="559"/>
      <point x="187" y="636" type="curve" smooth="yes"/>
      <point x="187" y="699"/>
      <point x="146" y="735"/>
      <point x="107" y="735" type="curve" smooth="yes"/>
      <point x="75" y="735"/>
      <point x="52" y="719"/>
      <point x="37" y="693" type="curve"/>
      <point x="43" y="674" type="line"/>
      <point x="142" y="570" type="line"/>
      <point x="130" y="621" type="line"/>
      <point x="111" y="561"/>
      <point x="71" y="514"/>
      <point x="30" y="477" type="curve"/>
    </contour>
  </outline>
</glyph>
<glyph name="dagger" format="1">
  <advance width="718"/>
  <unicode hex="2020"/>
  <outline>
    <contour>
      <point x="359" y="815" type="curve" smooth="yes"/>
      <point x="337" y="815"/>
      <point x="315" y="806"/>
      <point x="297" y="791" type="curve"/>
      <point x="301" y="723"/>
      <point x="317" y="667"/>
      <point x="345" y="589" type="curve"/>
      <point x="376" y="589" type="line"/>
      <point x="404" y="666"/>
      <point x="417" y="723"/>
      <point x="421" y="791" type="curve"/>
      <point x="403" y="806"/>
      <point x="381" y="815"/>
    </contour>
    <contour>
      <point x="359" y="453" type="curve" smooth="yes"/>
      <point x="334" y="453"/>
      <point x="309" y="445"/>
      <point x="290" y="429" type="curve"/>
      <point x="299.647139184" y="256.316208608"/>
      <point x="315.954833551" y="109.687251056"/>
      <point x="343" y="-116" type="curve"/>
      <point x="378" y="-116" type="line"/>
      <point x="404.110761729" y="109.671583515"/>
      <point x="418.352860816" y="256.316208608"/>
      <point x="428" y="429" type="curve"/>
      <point x="409" y="445"/>
      <point x="384" y="453"/>
    </contour>
    <contour>
      <point x="299" y="532" type="curve"/>
      <point x="419" y="532" type="line"/>
      <point x="276" y="550"/>
      <point x="208" y="572"/>
      <point x="98" y="577" type="curve"/>
      <point x="84" y="561"/>
      <point x="80" y="542"/>
      <point x="80" y="520" type="curve" smooth="yes"/>
      <point x="80" y="499"/>
      <point x="84" y="480"/>
      <point x="98" y="464" type="curve"/>
      <point x="208" y="468"/>
      <point x="276" y="491"/>
      <point x="419" y="510" type="curve"/>
      <point x="299" y="510" type="line"/>
      <point x="442" y="491"/>
      <point x="510" y="468"/>
      <point x="620" y="464" type="curve"/>
      <point x="634" y="480"/>
      <point x="638" y="499"/>
      <point x="638" y="520" type="curve" smooth="yes"/>
      <point x="638" y="542"/>
      <point x="634" y="561"/>
      <point x="620" y="577" type="curve"/>
      <point x="510" y="572"/>
      <point x="442" y="550"/>
    </contour>
  </outline>
</glyph>
<glyph name="A.alt" format="1">
  <advance width="768"/>
  <outline>
    <contour>
      <point x="195" y="214" type="line"/>
      <point x="256" y="219"/>
      <point x="309" y="223"/>
      <point x="373" y="223" type="curve" smooth="yes"/>
      <point x="437" y="223"/>
      <point x="490" y="219"/>
      <point x="551" y="214" type="curve"/>
      <point x="551" y="287" type="line"/>
      <point x="490" y="282"/>
      <point x="437" y="278"/>
      <point x="373" y="278" type="curve" smooth="yes"/>
      <point x="309" y="278"/>
      <point x="256" y="282"/>
      <point x="195" y="287" type="curve"/>
    </contour>
    <contour>
      <point x="159" y="38" type="line"/>
      <point x="392" y="695" type="line"/>
      <point x="352" y="657" type="line"/>
      <point x="569" y="36" type="line"/>
      <point x="592" y="67" type="line"/>
      <point x="521" y="60"/>
      <point x="471" y="43"/>
      <point x="456" y="28" type="curve"/>
      <point x="461" y="0" type="line"/>
      <point x="758" y="0" type="line"/>
      <point x="763" y="28" type="line"/>
      <point x="747" y="43"/>
      <point x="711" y="60"/>
      <point x="652" y="68" type="curve"/>
      <point x="696" y="36" type="line"/>
      <point x="419" y="727" type="line"/>
      <point x="386" y="738" type="line"/>
      <point x="386.0" y="738.0"/>
      <point x="339.0" y="712.0"/>
      <point x="339" y="712" type="curve"/>
      <point x="71" y="38" type="line"/>
      <point x="115" y="70" type="line"/>
      <point x="56" y="62"/>
      <point x="21" y="43"/>
      <point x="5" y="28" type="curve"/>
      <point x="10" y="0" type="line"/>
      <point x="267" y="0" type="line"/>
      <point x="272" y="28" type="line"/>
      <point x="257" y="43"/>
      <point x="208" y="62"/>
      <point x="138" y="69" type="curve"/>
    </contour>
  </outline>
</glyph>
<glyph name="C.alt" format="1">
  <advance width="719"/>
  <outline>
    <contour>
      <point x="423" y="677" type="curve" smooth="yes"/>
      <point x="490" y="677"/>
      <point x="546" y="652"/>
      <point x="567" y="630" type="curve"/>
      <point x="568" y="568"/>
      <point x="596" y="503"/>
      <point x="627" y="479" type="curve"/>
      <point x="655" y="484" type="line"/>
      <point x="655" y="721" type="line"/>
      <point x="627" y="726" type="line"/>
      <point x="601" y="712"/>
      <point x="573" y="682"/>
      <point x="567" y="653" type="curve"/>
      <point x="649" y="631" type="line"/>
      <point x="606" y="697"/>
      <point x="516" y="735"/>
      <point x="416" y="735" type="curve" smooth="yes"/>
      <point x="220" y="735"/>
      <point x="55" y="581"/>
      <point x="55" y="345" type="curve" smooth="yes"/>
      <point x="55" y="105"/>
      <point x="213" y="-20"/>
      <point x="406" y="-20" type="curve" smooth="yes"/>
      <point x="533" y="-20"/>
      <point x="626" y="41"/>
      <point x="684" y="147" type="curve"/>
      <point x="663" y="164" type="line"/>
      <point x="598" y="86"/>
      <point x="521" y="45"/>
      <point x="428" y="45" type="curve" smooth="yes"/>
      <point x="248" y="45"/>
      <point x="170" y="219"/>
      <point x="170" y="392" type="curve" smooth="yes"/>
      <point x="170" y="563"/>
      <point x="267" y="677"/>
    </contour>
  </outline>
</glyph>
<glyph name="G.alt" format="1">
  <advance width="793"/>
  <outline>
    <contour>
      <point x="427" y="677" type="curve" smooth="yes"/>
      <point x="497" y="677"/>
      <point x="554" y="652"/>
      <point x="581" y="613" type="curve"/>
      <point x="587" y="568"/>
      <point x="612" y="503"/>
      <point x="640" y="479" type="curve"/>
      <point x="668" y="484" type="line"/>
      <point x="668" y="721" type="line"/>
      <point x="640" y="726" type="line"/>
      <point x="617" y="711"/>
      <point x="594" y="682"/>
      <point x="587" y="653" type="curve"/>
      <point x="652" y="656" type="line"/>
      <point x="604" y="707"/>
      <point x="524" y="735"/>
      <point x="432" y="735" type="curve" smooth="yes"/>
      <point x="224" y="735"/>
      <point x="55" y="581"/>
      <point x="55" y="345" type="curve" smooth="yes"/>
      <point x="55" y="105"/>
      <point x="217" y="-20"/>
      <point x="422" y="-20" type="curve" smooth="yes"/>
      <point x="528" y="-20"/>
      <point x="633" y="22"/>
      <point x="689" y="68" type="curve"/>
      <point x="689" y="248" type="line"/>
      <point x="724" y="253"/>
      <point x="766" y="270"/>
      <point x="783" y="284" type="curve"/>
      <point x="778" y="312" type="line"/>
      <point x="449" y="312" type="line"/>
      <point x="444" y="284" type="line"/>
      <point x="461" y="266"/>
      <point x="526" y="253"/>
      <point x="580" y="248" type="curve"/>
      <point x="580" y="47" type="line"/>
      <point x="600" y="52"/>
      <point x="617" y="104"/>
      <point x="608" y="106" type="curve"/>
      <point x="575" y="63"/>
      <point x="514" y="39"/>
      <point x="441" y="39" type="curve" smooth="yes"/>
      <point x="250" y="39"/>
      <point x="170" y="216"/>
      <point x="170" y="392" type="curve" smooth="yes"/>
      <point x="170" y="563"/>
      <point x="270" y="677"/>
    </contour>
  </outline>
</glyph>
<glyph name="a.alt" format="1">
  <advance width="578"/>
  <outline>
    <contour>
      <point x="471" y="58" type="line"/>
      <point x="471" y="335" type="line" smooth="yes"/>
      <point x="471" y="466"/>
      <point x="420" y="520"/>
      <point x="273" y="520" type="curve" smooth="yes"/>
      <point x="163" y="520"/>
      <point x="74" y="465"/>
      <point x="74" y="397" type="curve" smooth="yes"/>
      <point x="74" y="350"/>
      <point x="104" y="326"/>
      <point x="141" y="313" type="curve"/>
      <point x="159" y="322" type="line"/>
      <point x="180" y="459" type="line"/>
      <point x="196" y="467"/>
      <point x="221" y="473"/>
      <point x="249" y="473" type="curve" smooth="yes"/>
      <point x="339" y="473"/>
      <point x="375" y="416"/>
      <point x="375" y="288" type="curve" smooth="yes"/>
      <point x="375" y="250" type="line"/>
      <point x="378" y="207" type="line"/>
      <point x="350" y="101"/>
      <point x="289.0" y="44.0"/>
      <point x="230" y="44" type="curve" smooth="yes"/>
      <point x="179" y="44"/>
      <point x="153.0" y="76.0"/>
      <point x="153" y="127" type="curve" smooth="yes"/>
      <point x="153" y="180"/>
      <point x="192" y="218"/>
      <point x="279" y="218" type="curve" smooth="yes"/>
      <point x="320.0" y="218.0"/>
      <point x="356.0" y="212.0"/>
      <point x="385" y="203" type="curve"/>
      <point x="402" y="247" type="line"/>
      <point x="369" y="264"/>
      <point x="321" y="274"/>
      <point x="269" y="274" type="curve" smooth="yes"/>
      <point x="135" y="274"/>
      <point x="50" y="208"/>
      <point x="50" y="110" type="curve" smooth="yes"/>
      <point x="50" y="30"/>
      <point x="106" y="-20"/>
      <point x="194" y="-20" type="curve" smooth="yes"/>
      <point x="292" y="-20"/>
      <point x="372" y="43"/>
      <point x="404" y="157" type="curve"/>
      <point x="393" y="148" type="line"/>
      <point x="388" y="130"/>
      <point x="384" y="104"/>
      <point x="384" y="82" type="curve" smooth="yes"/>
      <point x="384" y="28"/>
      <point x="406" y="-10"/>
      <point x="469" y="-10" type="curve" smooth="yes"/>
      <point x="518" y="-10"/>
      <point x="548" y="13"/>
      <point x="563" y="31" type="curve"/>
      <point x="563" y="51" type="line"/>
      <point x="443" y="95" type="line"/>
    </contour>
  </outline>
</glyph>
<glyph name="f_t" format="1">
  <advance width="768"/>
  <outline>
    <contour>
      <point x="312" y="766" type="curve" smooth="yes"/>
      <point x="326" y="766"/>
      <point x="337" y="764"/>
      <point x="345" y="760" type="curve"/>
      <point x="366" y="623" type="line"/>
      <point x="384" y="614" type="line"/>
      <point x="420" y="628"/>
      <point x="449" y="656"/>
      <point x="449" y="700" type="curve" smooth="yes"/>
      <point x="449" y="765"/>
      <point x="390" y="805"/>
      <point x="302" y="805" type="curve" smooth="yes"/>
      <point x="188" y="805"/>
      <point x="127" y="731"/>
      <point x="127" y="582" type="curve" smooth="yes"/>
      <point x="127" y="520" type="line"/>
      <point x="87" y="509"/>
      <point x="43" y="487"/>
      <point x="20" y="464" type="curve"/>
      <point x="20" y="436" type="line"/>
      <point x="149" y="436" type="line"/>
      <point x="125" y="479" type="line"/>
      <point x="125" y="62" type="line"/>
      <point x="92" y="58"/>
      <point x="47" y="42"/>
      <point x="30" y="28" type="curve"/>
      <point x="35" y="0" type="line"/>
      <point x="332" y="0" type="line"/>
      <point x="337" y="28" type="line"/>
      <point x="315" y="42"/>
      <point x="262" y="58"/>
      <point x="219" y="62" type="curve"/>
      <point x="219" y="561" type="line" smooth="yes"/>
      <point x="219" y="699"/>
      <point x="252" y="766"/>
    </contour>
    <contour>
      <point x="732" y="502" type="curve"/>
      <point x="633" y="501"/>
      <point x="538" y="490"/>
      <point x="501" y="488" type="curve"/>
      <point x="501" y="437" type="line"/>
      <point x="675" y="437" type="line" smooth="yes"/>
      <point x="713" y="437"/>
      <point x="736" y="450"/>
      <point x="736" y="477" type="curve" smooth="yes"/>
      <point x="736" y="485"/>
      <point x="735" y="493"/>
    </contour>
    <contour>
      <point x="457" y="503" type="curve"/>
      <point x="292" y="501"/>
      <point x="200" y="490"/>
      <point x="164" y="488" type="curve"/>
      <point x="164" y="437" type="line"/>
      <point x="164" y="437"/>
      <point x="486" y="437"/>
      <point x="486" y="437" type="curve"/>
      <point x="461" y="479" type="line"/>
      <point x="461" y="174" type="line" smooth="yes"/>
      <point x="461" y="43"/>
      <point x="505" y="-20"/>
      <point x="606" y="-20" type="curve" smooth="yes"/>
      <point x="671" y="-20"/>
      <point x="726" y="18"/>
      <point x="753" y="99" type="curve"/>
      <point x="737" y="112" type="line"/>
      <point x="709" y="76"/>
      <point x="679" y="54"/>
      <point x="636" y="54" type="curve" smooth="yes"/>
      <point x="574" y="54"/>
      <point x="555" y="100"/>
      <point x="555" y="196" type="curve" smooth="yes"/>
      <point x="555" y="654" type="line"/>
      <point x="510" y="654" type="line"/>
      <point x="485" y="618"/>
      <point x="468" y="579"/>
    </contour>
  </outline>
</glyph>
<glyph name="fl.alt" format="1">
  <advance width="672.0"/>
  <outline>
    <contour>
      <point x="365" y="502" type="curve"/>
      <point x="279" y="501"/>
      <point x="196" y="490"/>
      <point x="164" y="488" type="curve"/>
      <point x="164" y="437" type="line"/>
      <point x="308" y="437" type="line" smooth="yes"/>
      <point x="346" y="437"/>
      <point x="369" y="450"/>
      <point x="369" y="477" type="curve" smooth="yes"/>
      <point x="369" y="485"/>
      <point x="368" y="493"/>
    </contour>
    <contour>
      <point x="469" y="732" type="curve"/>
      <point x="471.0" y="62.0" type="line"/>
      <point x="439.0" y="58.0"/>
      <point x="395.0" y="42.0"/>
      <point x="378.0" y="28.0" type="curve"/>
      <point x="383.0" y="0.0" type="line"/>
      <point x="652.0" y="0.0" type="line"/>
      <point x="657.0" y="28.0" type="line"/>
      <point x="641.0" y="42.0"/>
      <point x="597.0" y="58.0"/>
      <point x="565.0" y="62.0" type="curve"/>
      <point x="565" y="599" type="line"/>
      <point x="577" y="766" type="line"/>
      <point x="561" y="785" type="line"/>
      <point x="541" y="780"/>
      <point x="522" y="777"/>
      <point x="505" y="777" type="curve" smooth="yes"/>
      <point x="434" y="777"/>
      <point x="393" y="805"/>
      <point x="312" y="805" type="curve" smooth="yes"/>
      <point x="191" y="805"/>
      <point x="127" y="731"/>
      <point x="127" y="582" type="curve" smooth="yes"/>
      <point x="127" y="520" type="line"/>
      <point x="87" y="509"/>
      <point x="43" y="487"/>
      <point x="20" y="464" type="curve"/>
      <point x="20" y="436" type="line"/>
      <point x="149" y="436" type="line"/>
      <point x="123" y="479" type="line"/>
      <point x="123.0" y="62.0" type="line"/>
      <point x="91.0" y="58.0"/>
      <point x="47.0" y="42.0"/>
      <point x="30.0" y="28.0" type="curve"/>
      <point x="35.0" y="0.0" type="line"/>
      <point x="332.0" y="0.0" type="line"/>
      <point x="337.0" y="28.0" type="line"/>
      <point x="315.0" y="42.0"/>
      <point x="262.0" y="58.0"/>
      <point x="219.0" y="62.0" type="curve"/>
      <point x="219" y="561" type="line" smooth="yes"/>
      <point x="219" y="693"/>
      <point x="256" y="757"/>
      <point x="322" y="757" type="curve" smooth="yes"/>
      <point x="383" y="757"/>
      <point x="427" y="732"/>
    </contour>
  </outline>
</glyph>
<glyph name="g.alt" format="1">
  <advance width="559"/>
  <outline>
    <contour>
      <point x="370" y="429" type="line"/>
      <point x="386" y="474"/>
      <point x="409" y="505"/>
      <point x="445" y="541" type="curve"/>
      <point x="394" y="519" type="line"/>
      <point x="558" y="526" type="line"/>
      <point x="572" y="540" type="line"/>
      <point x="568" y="585"/>
      <point x="540" y="615"/>
      <point x="494" y="615" type="curve" smooth="yes"/>
      <point x="435" y="615"/>
      <point x="380" y="554"/>
      <point x="345" y="458" type="curve"/>
    </contour>
    <contour>
      <point x="48" y="325" type="curve" smooth="yes"/>
      <point x="48" y="223"/>
      <point x="142" y="162"/>
      <point x="263" y="162" type="curve" smooth="yes"/>
      <point x="403" y="162"/>
      <point x="494" y="253"/>
      <point x="494" y="358" type="curve" smooth="yes"/>
      <point x="494" y="462"/>
      <point x="400" y="520"/>
      <point x="279" y="520" type="curve" smooth="yes"/>
      <point x="137" y="520"/>
      <point x="48" y="430"/>
    </contour>
    <contour>
      <point x="154" y="362" type="curve" smooth="yes"/>
      <point x="154" y="431"/>
      <point x="182" y="478"/>
      <point x="261" y="478" type="curve" smooth="yes"/>
      <point x="338" y="478"/>
      <point x="388" y="397"/>
      <point x="388" y="321" type="curve" smooth="yes"/>
      <point x="388" y="252"/>
      <point x="358" y="204"/>
      <point x="281" y="204" type="curve" smooth="yes"/>
      <point x="202" y="204"/>
      <point x="154" y="287"/>
    </contour>
    <contour>
      <point x="25" y="-188"/>
      <point x="107" y="-231"/>
      <point x="257" y="-231" type="curve" smooth="yes"/>
      <point x="406" y="-231"/>
      <point x="554" y="-165"/>
      <point x="554" y="-55" type="curve" smooth="yes"/>
      <point x="554" y="33"/>
      <point x="473" y="84"/>
      <point x="350" y="84" type="curve" smooth="yes"/>
      <point x="261" y="84" type="line" smooth="yes"/>
      <point x="196" y="84"/>
      <point x="177" y="99"/>
      <point x="177" y="126" type="curve" smooth="yes"/>
      <point x="177" y="141"/>
      <point x="182" y="160"/>
      <point x="190" y="177" type="curve"/>
      <point x="166" y="182" type="line"/>
      <point x="127" y="168"/>
      <point x="87" y="130"/>
      <point x="87" y="85" type="curve" smooth="yes"/>
      <point x="87" y="37"/>
      <point x="125" y="-5"/>
      <point x="236" y="-5" type="curve" smooth="yes"/>
      <point x="318" y="-5" type="line" smooth="yes"/>
      <point x="405" y="-5"/>
      <point x="457" y="-35"/>
      <point x="457" y="-91" type="curve" smooth="yes"/>
      <point x="457" y="-149"/>
      <point x="375" y="-192"/>
      <point x="275" y="-192" type="curve" smooth="yes"/>
      <point x="180" y="-192"/>
      <point x="132" y="-159"/>
      <point x="132" y="-104" type="curve" smooth="yes"/>
      <point x="132" y="-54"/>
      <point x="168" y="-15"/>
      <point x="229" y="1" type="curve"/>
      <point x="227" y="19"/>
      <point x="224" y="23"/>
      <point x="183" y="10" type="curve" smooth="yes"/>
      <point x="114" y="-12"/>
      <point x="25" y="-55"/>
      <point x="25" y="-120" type="curve" smooth="yes"/>
    </contour>
  </outline>
</glyph>
<glyph name="g.alt2" format="1">
  <advance width="541"/>
  <outline>
    <contour>
      <point x="48" y="325" type="curve" smooth="yes"/>
      <point x="48" y="223"/>
      <point x="142" y="162"/>
      <point x="263" y="162" type="curve" smooth="yes"/>
      <point x="403" y="162"/>
      <point x="494" y="253"/>
      <point x="494" y="358" type="curve" smooth="yes"/>
      <point x="494" y="462"/>
      <point x="400" y="520"/>
      <point x="279" y="520" type="curve" smooth="yes"/>
      <point x="137" y="520"/>
      <point x="48" y="430"/>
    </contour>
    <contour>
      <point x="154" y="362" type="curve" smooth="yes"/>
      <point x="154" y="431"/>
      <point x="182" y="478"/>
      <point x="261" y="478" type="curve" smooth="yes"/>
      <point x="338" y="478"/>
      <point x="388" y="397"/>
      <point x="388" y="321" type="curve" smooth="yes"/>
      <point x="388" y="252"/>
      <point x="358" y="204"/>
      <point x="281" y="204" type="curve" smooth="yes"/>
      <point x="202" y="204"/>
      <point x="154" y="287"/>
    </contour>
    <contour>
      <point x="25" y="-120" type="curve" smooth="yes"/>
      <point x="25" y="-188"/>
      <point x="107" y="-231"/>
      <point x="257" y="-231" type="curve" smooth="yes"/>
      <point x="406" y="-231"/>
      <point x="554" y="-165"/>
      <point x="554" y="-55" type="curve" smooth="yes"/>
      <point x="554" y="33"/>
      <point x="473" y="84"/>
      <point x="350" y="84" type="curve" smooth="yes"/>
      <point x="266" y="84" type="line" smooth="yes"/>
      <point x="227" y="84"/>
      <point x="197" y="89"/>
      <point x="178" y="97" type="curve"/>
      <point x="187" y="177" type="line"/>
      <point x="166" y="182" type="line"/>
      <point x="127" y="168"/>
      <point x="87" y="130"/>
      <point x="87" y="85" type="curve" smooth="yes"/>
      <point x="87" y="37"/>
      <point x="125" y="-5"/>
      <point x="236" y="-5" type="curve" smooth="yes"/>
      <point x="318" y="-5" type="line" smooth="yes"/>
      <point x="405" y="-5"/>
      <point x="457" y="-35"/>
      <point x="457" y="-91" type="curve" smooth="yes"/>
      <point x="457" y="-149"/>
      <point x="375" y="-192"/>
      <point x="275" y="-192" type="curve" smooth="yes"/>
      <point x="180" y="-192"/>
      <point x="132" y="-159"/>
      <point x="132" y="-104" type="curve" smooth="yes"/>
      <point x="132" y="-54"/>
      <point x="168" y="-15"/>
      <point x="229" y="1" type="curve"/>
      <point x="227" y="19"/>
      <point x="224" y="23"/>
      <point x="183" y="10" type="curve" smooth="yes"/>
      <point x="114" y="-12"/>
      <point x="25" y="-55"/>
    </contour>
    <contour>
      <point x="549" y="574" type="line"/>
      <point x="534" y="605"/>
      <point x="508" y="625"/>
      <point x="474" y="625" type="curve" smooth="yes"/>
      <point x="412.0" y="625.0"/>
      <point x="370.0" y="558.78125"/>
      <point x="370" y="462" type="curve"/>
      <point x="379.0" y="471.0" type="line"/>
      <point x="541" y="556" type="line"/>
    </contour>
  </outline>
</glyph>
<glyph name="s.alt" format="1">
  <advance width="507"/>
  <outline>
    <contour>
      <point x="130" y="74" type="curve"/>
      <point x="127.022478317" y="124.617868616"/>
      <point x="107.88743084" y="176.11256916"/>
      <point x="78" y="206" type="curve"/>
      <point x="50" y="201" type="line"/>
      <point x="50" y="-12" type="line"/>
      <point x="78" y="-17" type="line"/>
      <point x="97.0" y="-3.0"/>
      <point x="124.0" y="32.0"/>
      <point x="126" y="61" type="curve"/>
      <point x="74" y="61" type="line"/>
      <point x="111" y="20"/>
      <point x="173" y="-20"/>
      <point x="253" y="-20" type="curve" smooth="yes"/>
      <point x="376" y="-20"/>
      <point x="462.0" y="50.0"/>
      <point x="462.0" y="140.0" type="curve" smooth="yes"/>
      <point x="462.0" y="238.81875"/>
      <point x="374.064915151" y="269.976715217"/>
      <point x="282" y="303" type="curve" smooth="yes"/>
      <point x="208.080951105" y="328.97155772"/>
      <point x="151.0" y="351.529411765"/>
      <point x="151.0" y="402.0" type="curve" smooth="yes"/>
      <point x="151.0" y="446.391891892"/>
      <point x="191.0" y="475.0"/>
      <point x="256" y="475" type="curve" smooth="yes"/>
      <point x="305.570093458" y="475.0"/>
      <point x="344.184583684" y="459.780806875"/>
      <point x="360" y="441" type="curve"/>
      <point x="365" y="395"/>
      <point x="389" y="361"/>
      <point x="406.0" y="346.0" type="curve"/>
      <point x="434.0" y="351.0" type="line"/>
      <point x="434.0" y="524.0" type="line"/>
      <point x="406.0" y="529.0" type="line"/>
      <point x="387" y="515"/>
      <point x="365" y="484"/>
      <point x="363" y="455" type="curve"/>
      <point x="376.811952337" y="459.249831488"/>
      <point x="401.462673111" y="464.932834139"/>
      <point x="410" y="466" type="curve"/>
      <point x="373" y="497"/>
      <point x="323" y="520"/>
      <point x="257" y="520" type="curve" smooth="yes"/>
      <point x="148" y="520"/>
      <point x="63.0" y="460.0"/>
      <point x="63.0" y="375.0" type="curve" smooth="yes"/>
      <point x="63.0" y="269.074074074"/>
      <point x="160.951313893" y="236.016655774"/>
      <point x="237" y="210" type="curve" smooth="yes"/>
      <point x="318.922470848" y="183.025527891"/>
      <point x="370.0" y="165.314285714"/>
      <point x="370.0" y="108.0" type="curve" smooth="yes"/>
      <point x="370.0" y="58.6024096386"/>
      <point x="333.0" y="26.0"/>
      <point x="250" y="26" type="curve" smooth="yes"/>
      <point x="209" y="26"/>
      <point x="158" y="43"/>
    </contour>
  </outline>
</glyph>
